<?xml version="1.0" encoding="UTF-8" standalone="no"?>
<!-- Created with Inkscape (http://www.inkscape.org/) -->

<svg
   version="1.1"
   id="svg2"
   width="5333.3335"
   height="5333.3335"
   viewBox="0 0 5333.3335 5333.3335"
   sodipodi:docname="vecteezy_blood-test-tube-icon-in-comic-style-hematology-cartoon_16130428.eps"
   xmlns:inkscape="http://www.inkscape.org/namespaces/inkscape"
   xmlns:sodipodi="http://sodipodi.sourceforge.net/DTD/sodipodi-0.dtd"
   xmlns="http://www.w3.org/2000/svg"
   xmlns:svg="http://www.w3.org/2000/svg">
  <defs
     id="defs6" />
  <sodipodi:namedview
     id="namedview4"
     pagecolor="#ffffff"
     bordercolor="#000000"
     borderopacity="0.25"
     inkscape:showpageshadow="2"
     inkscape:pageopacity="0.0"
     inkscape:pagecheckerboard="0"
     inkscape:deskcolor="#d1d1d1" />
  <g
     id="g8"
     inkscape:groupmode="layer"
     inkscape:label="ink_ext_XXXXXX"
     transform="matrix(1.3333333,0,0,-1.3333333,0,5333.3333)">
    <g
       id="g10"
       transform="scale(0.1)">
      <path
         d="m 38187.1,25844.8 c 0,6488.8 -5260.2,11749 -11749,11749 h -0.1 c -2251.1,0 -4354.3,-633.3 -6141.4,-1731.2 -1787.1,1097.9 -3890.2,1731.2 -6141.4,1731.2 v 0 c -6488.82,0 -11749.03,-5260.2 -11749.03,-11749 v 0 c 0,-2251.2 633.3,-4354.3 1731.21,-6141.4 C 3039.47,17916.3 2406.17,15813.1 2406.17,13562 v -0.1 c 0,-6488.8 5260.21,-11749 11749.03,-11749 v 0 c 2251.2,0 4354.3,633.3 6141.4,1731.2 1787.1,-1097.9 3890.3,-1731.2 6141.4,-1731.2 h 0.1 c 6488.8,0 11749,5260.2 11749,11749 v 0.1 c 0,2251.1 -633.3,4354.3 -1731.2,6141.4 1097.9,1787.1 1731.2,3890.2 1731.2,6141.4 v 0"
         style="fill:#e3f6fd;fill-opacity:1;fill-rule:nonzero;stroke:none"
         id="path12" />
      <path
         d="m 33135.9,12474.1 380,-230.5 c 237.2,-143.9 534.8,-143.9 772,0 l 380,230.5 -230.5,-380 c -143.9,-237.2 -143.9,-534.8 0,-772 l 230.5,-380 -380,230.5 c -237.2,143.9 -534.8,143.9 -772,0 l -380,-230.5 230.5,380 c 143.9,237.2 143.9,534.8 0,772 l -230.5,380"
         style="fill:#a3e2f9;fill-opacity:1;fill-rule:nonzero;stroke:none"
         id="path14" />
      <path
         d="m 33433.2,12176.8 18.7,-30.9 c 163.8,-270 163.8,-605.6 0,-875.7 l -18.7,-30.8 30.9,18.7 c 270,163.8 605.6,163.8 875.7,0 l 30.8,-18.7 -18.7,30.8 c -163.8,270.1 -163.8,605.7 0,875.7 l 18.7,30.9 -30.8,-18.7 c -270.1,-163.8 -605.7,-163.8 -875.7,0 z M 33136,10842.1 c -25.9,0 -51.5,10 -70.8,29.3 -32.5,32.6 -38.6,83.2 -14.8,122.6 l 230.5,380 c 125,206.1 125,462.1 0,668.2 l -230.5,380 c -23.8,39.4 -17.7,90 14.8,122.6 32.6,32.5 83.2,38.6 122.6,14.8 l 380,-230.5 c 206.1,-125 462.1,-125 668.2,0 l 380,230.5 c 39.4,23.8 90,17.7 122.6,-14.8 32.5,-32.6 38.7,-83.2 14.8,-122.6 l -230.5,-380 c -125,-206.1 -125,-462.1 0,-668.2 l 230.5,-380 c 23.9,-39.4 17.7,-90 -14.8,-122.6 -32.6,-32.5 -83.2,-38.7 -122.6,-14.8 l -380,230.5 c -206.1,125 -462.1,125 -668.2,0 l -380,-230.5 c -16.1,-9.7 -34,-14.5 -51.8,-14.5"
         style="fill:#3c5696;fill-opacity:1;fill-rule:nonzero;stroke:none"
         id="path16" />
      <path
         d="m 33901.9,33801.5 431.6,105.7 c 269.5,66 479.9,276.4 545.9,545.9 l 105.7,431.6 105.8,-431.6 c 66,-269.5 276.4,-479.9 545.8,-545.9 l 431.7,-105.7 -431.7,-105.7 c -269.4,-66 -479.8,-276.4 -545.8,-545.9 l -105.8,-431.6 -105.7,431.6 c -66,269.5 -276.4,479.9 -545.9,545.9 l -431.6,105.7"
         style="fill:#fccf6e;fill-opacity:1;fill-rule:nonzero;stroke:none"
         id="path18" />
      <path
         d="m 34322.3,33801.5 35,-8.6 c 306.8,-75.1 544.1,-312.4 619.2,-619.2 l 8.6,-35.1 8.6,35.1 c 75.2,306.8 312.4,544.1 619.2,619.2 l 35.1,8.6 -35.1,8.6 c -306.8,75.1 -544,312.4 -619.2,619.2 l -8.6,35.1 -8.6,-35.1 c -75.1,-306.8 -312.4,-544.1 -619.2,-619.2 z m 662.8,-1183.2 v 0 c -46,0 -86.1,31.4 -97.1,76.2 l -105.7,431.6 c -57.4,234.1 -238.4,415.2 -472.6,472.5 l -431.6,105.8 c -44.7,10.9 -76.2,51 -76.2,97.1 0,46.1 31.5,86.2 76.2,97.1 l 431.6,105.7 c 234.2,57.4 415.2,238.4 472.6,472.6 l 105.7,431.6 c 11,44.7 51.1,76.2 97.1,76.2 46.1,0 86.2,-31.4 97.2,-76.2 l 105.7,-431.6 c 57.3,-234.2 238.4,-415.2 472.5,-472.6 l 431.6,-105.7 c 44.8,-10.9 76.3,-51 76.3,-97.1 0,-46.1 -31.5,-86.2 -76.3,-97.1 l -431.6,-105.8 c -234.1,-57.3 -415.2,-238.4 -472.5,-472.5 l -105.7,-431.6 c -11,-44.8 -51.1,-76.2 -97.2,-76.2"
         style="fill:#3c5696;fill-opacity:1;fill-rule:nonzero;stroke:none"
         id="path20" />
      <path
         d="m 3459.81,27495.9 352.11,-1314.1 c 59.21,-220.9 335.44,-295 497.21,-133.2 l 961.97,962 c 161.77,161.8 87.76,438 -133.22,497.2 l -1314.08,352.1 c -220.99,59.2 -423.2,-143 -363.99,-364"
         style="fill:#fccf6e;fill-opacity:1;fill-rule:nonzero;stroke:none"
         id="path22" />
      <path
         d="m 3556.4,27521.8 352.11,-1314.1 c 18.45,-68.8 70.58,-121 139.44,-139.4 68.85,-18.5 140.06,0.6 190.47,51 l 961.97,962 c 50.41,50.4 69.49,121.6 51.04,190.5 -18.45,68.8 -70.58,121 -139.44,139.4 l -1314.08,352.1 c -68.86,18.5 -140.05,-0.6 -190.47,-51 -50.4,-50.4 -69.48,-121.6 -51.04,-190.5 z m 544.39,-1660.6 c -34.68,0 -69.78,4.6 -104.6,13.9 -138.7,37.2 -243.7,142.2 -280.86,280.9 l -352.11,1314 v 0 c -37.17,138.7 1.27,282.2 102.8,383.7 101.53,101.5 244.98,139.9 383.66,102.8 l 1314.08,-352.1 c 138.7,-37.2 243.69,-142.2 280.85,-280.9 37.17,-138.7 -1.26,-282.1 -102.79,-383.6 l -961.98,-962 c -76.05,-76 -175.6,-116.7 -279.05,-116.7"
         style="fill:#3c5696;fill-opacity:1;fill-rule:nonzero;stroke:none"
         id="path24" />
      <path
         d="m 22582.3,3575.5 223.1,1342 c 37.5,225.7 -183.4,407.4 -397.6,327 l -1273.7,-477.8 c -214.2,-80.4 -261.1,-362.5 -84.4,-507.8 l 1050.7,-864.2 c 176.6,-145.3 444.4,-44.9 481.9,180.8"
         style="fill:#f57b8f;fill-opacity:1;fill-rule:nonzero;stroke:none"
         id="path26" />
      <path
         d="m 22512.9,5163.7 c -23.4,0 -47,-4.2 -70,-12.8 l -1273.7,-477.8 c -66.8,-25.1 -113.6,-82 -125.3,-152.3 -11.7,-70.4 14.2,-139.4 69.3,-184.7 L 22163.9,3472 c 55,-45.3 127.7,-57.4 194.5,-32.4 66.7,25.1 113.6,82 125.3,152.3 l 223,1342 c 11.7,70.4 -14.2,139.4 -69.2,184.7 -36.2,29.7 -79.9,45.1 -124.6,45.1 z m -225.1,-1937.2 c -90,0 -178.2,31.1 -251,91 l -1050.7,864.2 c -110.9,91.2 -163,230.2 -139.5,371.9 23.6,141.6 117.9,256.3 252.3,306.7 l 1273.8,477.9 c 134.4,50.4 280.9,26.1 391.8,-65.2 110.9,-91.2 163.1,-230.2 139.5,-371.9 l -223.1,-1342 c -23.5,-141.6 -117.8,-256.3 -252.2,-306.7 -46.2,-17.4 -93.8,-25.9 -140.9,-25.9"
         style="fill:#3c5696;fill-opacity:1;fill-rule:nonzero;stroke:none"
         id="path28" />
      <path
         d="m 4410.73,8390.7 383.57,383.5 c 87.63,87.7 87.63,229.7 0,317.4 -87.62,87.6 -229.69,87.6 -317.32,0 L 4093.4,8708 3709.83,9091.6 c -87.63,87.6 -229.7,87.6 -317.32,0 -87.63,-87.7 -87.63,-229.7 0,-317.4 l 383.57,-383.5 -383.57,-383.6 c -87.63,-87.6 -87.63,-229.7 0,-317.3 87.62,-87.7 229.69,-87.7 317.32,0 l 383.57,383.5 383.58,-383.5 c 87.63,-87.7 229.7,-87.7 317.32,0 87.63,87.6 87.63,229.7 0,317.3 l -383.57,383.6"
         style="fill:#f57b8f;fill-opacity:1;fill-rule:nonzero;stroke:none"
         id="path30" />
      <path
         d="m 17701,35497.5 h -485.8 v 485.8 c 0,111 -90,200.9 -200.9,200.9 -111,0 -201,-90 -201,-200.9 v -485.8 h -485.8 c -111,0 -200.9,-90 -200.9,-201 0,-111 89.9,-200.9 200.9,-200.9 h 485.8 v -485.8 c 0,-111 90,-201 201,-201 110.9,0 200.9,90 200.9,201 v 485.8 h 485.8 c 111,0 201,89.9 201,200.9 0,111 -90,201 -201,201"
         style="fill:#f57b8f;fill-opacity:1;fill-rule:nonzero;stroke:none"
         id="path32" />
      <path
         d="m 23641.9,23244.8 c -252.9,47.7 -510.1,74.7 -770.2,80.5 -224.3,70 -417.4,181.1 -570.9,330 -144.7,140.3 -252.5,311.9 -320.6,509.9 -68.4,199 -96.2,425.3 -82.5,672.5 23.5,426.4 279.3,921.2 760.4,1470.7 339,387.3 668.9,662.5 682.8,674 59.5,49.5 132.1,73.9 204.4,73.9 5.9,0 11.8,-0.2 17.7,-0.5 78,-4.3 154.5,-37.1 212.7,-97.3 12.5,-13 310.1,-322.9 604.4,-745.1 417.7,-599.1 617.5,-1119.1 594,-1545.5 -13.6,-247.2 -66.1,-469 -156,-659.4 -89.5,-189.3 -215.6,-347.9 -374.8,-471.5 -215.7,-167.4 -489.1,-266.5 -801.4,-292.2"
         style="fill:#acd3e2;fill-opacity:1;fill-rule:nonzero;stroke:none"
         id="path34" />
      <path
         d="m 13149.9,18319.3 c 30.6,35.1 60.5,71.1 89.6,108 l 7007.7,8886.5 198.1,251.3 -251.3,198.1 -3539.4,2791.2 42.3,47.9 -166.3,146.7 c -162.1,143 -258.9,340.7 -272.4,556.5 -13.5,215.8 57.8,424 200.9,586.1 154.9,175.7 373.9,274.1 606.4,274.1 15.1,0 30.4,-0.5 45.6,-1.3 180.6,-10 354.8,-81.4 490.6,-201.2 l 4473.7,-3946.5 c 162.2,-143.1 258.9,-340.7 272.4,-556.5 13.6,-215.9 -57.8,-424 -200.8,-586.2 -155,-175.6 -373.9,-274 -606.4,-274 -15.2,0 -30.4,0.4 -45.6,1.3 -180.6,9.9 -354.9,81.4 -490.7,201.2 l -166.2,146.6 -7275,-8246.9 c -126.2,-143 -264.2,-270.9 -413.2,-382.9"
         style="fill:#acd3e2;fill-opacity:1;fill-rule:nonzero;stroke:none"
         id="path36" />
      <path
         d="m 22674.5,7696.5 c -59,0 -118.9,1.7 -179.6,5 -628.5,34.7 -1152.8,239.3 -1516,591.6 -204.1,198 -356.4,440.4 -452.7,720.7 -98.6,286.7 -138.4,614.7 -118.6,974.7 34.2,620.2 415.9,1350.8 1134.4,2171.6 515.9,589.2 1016.3,1006.8 1037.4,1024.3 l 228.5,189.8 206.3,-213.8 c 19,-19.7 470.4,-489.8 918.3,-1132.3 623.9,-894.8 922.8,-1662.9 888.6,-2283.1 -19.9,-360.1 -95.6,-681.7 -225.1,-955.8 -126.6,-268 -304.6,-492.2 -529.2,-666.5 -361.3,-280.3 -839.8,-426.2 -1392.3,-426.2"
         style="fill:#acd3e2;fill-opacity:1;fill-rule:nonzero;stroke:none"
         id="path38" />
      <path
         d="m 30037.2,9043.3 c -18.2,0 -36.5,0.5 -54.7,1.5 -259,14.3 -496.8,128.5 -669.8,321.7 L 26307,12723.3 c -59.3,66.3 -107.7,138.7 -145.5,214.8 v 0 c -23.7,47.5 -43.1,96.4 -58.4,146.2 l -0.4,1.1 c -3.6,11.8 -6.9,23.6 -10.1,35.5 -0.3,1.4 -0.7,2.7 -1,4 -3.1,11.8 -6,23.7 -8.6,35.6 l -0.3,1.5 c -10.8,49.1 -17.6,98.9 -20.7,148.8 -0.1,2.2 -0.3,4.4 -0.4,6.6 -0.6,10.6 -1,21.3 -1.2,32 0,3.3 -0.1,6.5 -0.1,9.8 -0.2,10.4 -0.2,20.7 0.1,31.1 0,3.2 0.2,6.3 0.2,9.5 1.1,34.3 3.9,68.6 8.5,102.6 0.3,2 0.5,4 0.8,6 47,-127.3 121.5,-246.6 223.6,-348.7 l 3186.1,-3186.1 c 183.4,-183.3 427.2,-284.3 686.4,-284.3 259.3,0 503.1,101 686.5,284.3 l 553.3,553.3 c 64.6,64.6 119,136.7 162.3,214.4 18,-83.9 24.9,-170.8 20.1,-258.8 -0.6,-9.6 -1.3,-19.2 -2.1,-28.8 -0.2,-2.8 -0.5,-5.7 -0.8,-8.5 -0.6,-7.1 -1.4,-14.1 -2.2,-21.1 -0.3,-2.8 -0.6,-5.7 -1,-8.5 -1.1,-8.8 -2.2,-17.6 -3.5,-26.3 l -0.4,-2.1 c -1.4,-9.5 -3,-18.9 -4.7,-28.3 -0.5,-2.6 -1,-5.1 -1.5,-7.6 -1.4,-7.1 -2.8,-14.2 -4.3,-21.2 -0.6,-2.7 -1.2,-5.3 -1.7,-8 -1.9,-8.3 -3.9,-16.6 -5.9,-24.8 -0.3,-1 -0.5,-2 -0.7,-2.9 -2.4,-9.4 -5,-18.7 -7.6,-27.9 -0.6,-2 -1.2,-3.9 -1.8,-5.9 -2.1,-7.4 -4.4,-14.7 -6.7,-22.1 -0.7,-2.3 -1.5,-4.5 -2.2,-6.8 -2.7,-8.2 -5.5,-16.3 -8.4,-24.3 l -0.9,-2.7 c -3.3,-9.3 -6.8,-18.4 -10.4,-27.6 -0.6,-1.2 -1.1,-2.5 -1.6,-3.8 -3.1,-7.7 -6.3,-15.3 -9.6,-23 -0.8,-1.9 -1.7,-3.8 -2.5,-5.8 -3.5,-7.9 -7.1,-15.7 -10.7,-23.5 l -1.3,-2.6 c -4.2,-9 -8.7,-18 -13.2,-26.9 l -1,-1.8 c -4.1,-7.9 -8.4,-15.8 -12.7,-23.6 -0.9,-1.7 -1.8,-3.3 -2.8,-5 -4.2,-7.5 -8.5,-15 -13,-22.4 l -1.6,-2.7 c -5.2,-8.7 -10.5,-17.3 -16,-25.7 v -0.1 c -46.7,-72.1 -103.2,-138.5 -169,-197.4 l -582.9,-522 c -179.5,-160.7 -407.3,-247.5 -646.3,-247.5 m -6949.3,4610.9 c -87.8,0 -175.9,2.5 -264.1,7.3 -610.6,33.7 -1199.6,182.5 -1750.7,442.2 -380.9,179.5 -732.2,406.8 -1049.9,679 299.8,-215 623.6,-393.3 968.3,-533.1 564.6,-229 1160.9,-345 1772.3,-345 611.5,0 1207.8,116 1772.4,345 336.5,136.4 653,309.6 946.7,517.7 l 586,-586 c -33.4,-91.3 -52.7,-186.6 -57.8,-282.6 l -424.9,474.5 c -304.7,-191.6 -630.3,-347.2 -973.8,-464.9 -493,-168.9 -1004.6,-254.1 -1524.5,-254.1 m 3814.9,1951.6 -290.7,290.7 c 208.1,293.7 381.3,610.2 517.7,946.7 228.9,564.5 345,1160.8 345,1772.3 0,611.5 -116.1,1207.8 -345,1772.4 -237.2,584.9 -585.3,1109.3 -1034.8,1558.8 -89.4,89.3 -181.7,174.7 -276.9,256 281.3,-200.7 540.4,-433 774.9,-694.8 424,-473.6 742.7,-1016.4 947.4,-1613.5 197.4,-576.3 280.5,-1178.1 246.8,-1788.7 -33.7,-610.5 -182.5,-1199.5 -442.2,-1750.6 -124.6,-264.5 -272.4,-514.8 -442.2,-749.3"
         style="fill:#acd3e2;fill-opacity:1;fill-rule:nonzero;stroke:none"
         id="path40" />
      <path
         d="m 11069.7,17535.7 c -589.1,0.1 -1145.52,193.3 -1609.01,558.8 -545.57,430.2 -890.95,1047.2 -972.51,1737.1 -81.56,690 110.44,1370.5 540.67,1916.1 l 7106.75,9012.2 4085,-3221.4 -7106.8,-9012.2 c -496.4,-629.5 -1241.4,-990.6 -2043.9,-990.6 h -0.2"
         style="fill:#fccf6e;fill-opacity:1;fill-rule:nonzero;stroke:none"
         id="path42" />
      <path
         d="m 16109.1,30984.6 -198.2,-251.3 -7007.68,-8886.6 c -230.73,-292.6 -397.3,-621.8 -495.08,-978.4 -94.4,-344.4 -120.93,-699.4 -78.85,-1055.4 42.08,-356 150.67,-695.1 322.75,-1008 178.26,-324 416.99,-605.3 709.58,-836 247.61,-195.3 523.31,-345.4 819.48,-446.3 286.2,-97.4 585.2,-146.9 888.6,-146.9 408.3,0 818.6,92.2 1186.4,266.6 386.2,183.1 717,447.2 983.4,785 l 7007.7,8886.5 198.1,251.3 -251.3,198.1 -3833.7,3023.2 -251.2,198.2 m 53.1,-449.5 3833.7,-3023.1 -7007.7,-8886.6 c -481.8,-610.9 -1196.5,-929.6 -1918.5,-929.6 -529.1,0 -1062.2,171.3 -1509.93,524.3 h -0.01 c -1058.64,834.9 -1240.1,2369.8 -405.28,3428.5 l 7007.72,8886.5"
         style="fill:#3c5696;fill-opacity:1;fill-rule:nonzero;stroke:none"
         id="path44" />
      <path
         d="m 16541.7,23926.3 c -195.5,0 -387.7,66.7 -541.4,187.9 -197.3,155.6 -318.3,388.9 -331.8,640 -11.5,212.4 54.8,421.5 186.6,588.6 167,211.8 417.5,333.2 687.3,333.2 195.4,0 387.7,-66.7 541.3,-187.9 167.2,-131.8 280.4,-319.7 318.7,-528.9 45.4,-247.3 -17.8,-502.4 -173.4,-699.7 -167,-211.8 -417.5,-333.2 -687.3,-333.2"
         style="fill:#d4af5b;fill-opacity:1;fill-rule:nonzero;stroke:none"
         id="path46" />
      <path
         d="m 13345.2,23736.7 c -195.4,0 -387.6,66.8 -541.3,187.9 -64.9,51.2 -121.5,110.7 -168.7,176.5 148,-106.3 327.7,-164.4 510,-164.4 269.9,0 520.4,121.4 687.3,333.2 155.7,197.4 218.9,452.4 173.5,699.8 -23.5,128 -75,248.1 -149.8,352.2 10.5,-7.5 20.9,-15.3 31.1,-23.4 167.2,-131.8 280.4,-319.7 318.7,-528.8 45.4,-247.4 -17.8,-502.4 -173.5,-699.8 -166.9,-211.8 -417.4,-333.2 -687.3,-333.2"
         style="fill:#d4af5b;fill-opacity:1;fill-rule:nonzero;stroke:none"
         id="path48" />
      <path
         d="m 13402.6,21394.6 c -195.4,0 -387.7,66.8 -541.4,188 -197.3,155.6 -318.3,388.9 -331.8,640 -11.5,212.4 54.8,421.4 186.6,588.6 167,211.7 417.5,333.1 687.3,333.1 195.4,0 387.7,-66.7 541.3,-187.9 167.2,-131.8 280.4,-319.6 318.8,-528.8 45.4,-247.4 -17.9,-502.4 -173.5,-699.8 -167,-211.7 -417.5,-333.2 -687.3,-333.2"
         style="fill:#d4af5b;fill-opacity:1;fill-rule:nonzero;stroke:none"
         id="path50" />
      <path
         d="m 12428.3,18185.4 c -195.4,0 -387.6,66.7 -541.3,187.9 -197.3,155.6 -318.3,388.9 -331.8,640 -11.5,212.4 54.8,421.4 186.6,588.6 167,211.7 417.5,333.2 687.3,333.2 195.4,0 387.7,-66.8 541.3,-187.9 167.2,-131.9 280.4,-319.7 318.7,-528.9 11.9,-64.5 16.3,-129.5 13.7,-193.9 l -314.6,-399 c -130.6,-165.5 -278.2,-309.6 -438.5,-431.7 -39.8,-5.5 -80.4,-8.3 -121.4,-8.3"
         style="fill:#d4af5b;fill-opacity:1;fill-rule:nonzero;stroke:none"
         id="path52" />
      <path
         d="m 12549.7,18193.7 c 160.3,122.1 307.9,266.2 438.5,431.7 l 314.6,399 c -7.5,-182.6 -72.1,-360 -187.1,-505.9 -141.6,-179.5 -343.4,-294.2 -566,-324.8"
         style="fill:#33497d;fill-opacity:1;fill-rule:nonzero;stroke:none"
         id="path54" />
      <path
         d="m 14712.7,25300.1 c -109.5,0 -213.4,40.4 -292.5,113.5 -40.5,37.5 -73.1,81.4 -97,129.7 58.2,-28.2 122.8,-43.2 189.5,-43.2 142.7,0 281.1,69.9 370.1,186.9 139.5,183.1 249.1,386.2 325.6,603.6 76.5,217.3 118.4,444.3 124.4,674.6 2.2,80.1 -15.9,159 -51.3,228.7 44,-21.8 84.6,-51.4 120.2,-88 86.8,-89.1 134.6,-213.4 131.1,-340.7 -6,-230.3 -47.9,-457.3 -124.4,-674.6 -76.5,-217.4 -186.1,-420.5 -325.6,-603.6 -89,-117 -227.4,-186.9 -370.1,-186.9"
         style="fill:#d4af5b;fill-opacity:1;fill-rule:nonzero;stroke:none"
         id="path56" />
      <path
         d="m 15210.9,21993.9 c -36.9,0 -73.6,4.9 -109,14.3 -114,30.2 -210.2,103.4 -271,206 -55.8,94.1 -76.7,205.5 -59,313.9 l 0.1,0.3 0.1,0.4 c 45.3,273.4 4.2,549.2 -119,797.5 l -0.1,0.3 -0.2,0.3 c -48.6,98.5 -61.1,211.2 -35.2,317.4 28.2,115.9 98.9,214 198.8,276 67.5,42 145.6,64.2 225.7,64.2 86.4,0 171.1,-25.5 245,-73.6 70.6,-46.1 128.1,-111.1 166.1,-187.8 102.4,-206.3 171.5,-426.5 205.5,-654.4 34,-228 32.1,-458.8 -5.5,-685.8 -37.2,-225.4 -223.2,-389 -442.3,-389"
         style="fill:#d4af5b;fill-opacity:1;fill-rule:nonzero;stroke:none"
         id="path58" />
      <path
         d="m 11560,22087.1 c -47.9,0 -95.3,7.7 -140.5,22.8 -108.9,36.2 -199.3,116 -250.5,220.5 16.3,-7.9 33.2,-14.8 50.5,-20.5 45.2,-15.1 92.6,-22.8 140.5,-22.8 180.7,0 345.7,108.5 420.5,276.3 l 0.1,0.3 0.1,0.4 c 112.2,253.4 298,461.3 537.2,601.2 l 0.3,0.2 0.3,0.2 c 94.7,55.6 167,143 203.7,245.9 40.1,112.4 34.8,233.2 -14.8,340.1 -0.7,1.6 -1.4,3.1 -2.1,4.6 88,-43 160.4,-114.3 202.1,-204.6 49.6,-106.9 54.9,-227.7 14.8,-340.1 -36.7,-102.9 -109,-190.3 -203.7,-245.9 l -0.3,-0.2 -0.3,-0.2 c -239.2,-139.9 -425,-347.8 -537.2,-601.2 l -0.1,-0.4 -0.1,-0.3 c -74.8,-167.8 -239.8,-276.3 -420.5,-276.3"
         style="fill:#d4af5b;fill-opacity:1;fill-rule:nonzero;stroke:none"
         id="path60" />
      <path
         d="m 13624.7,19936.6 c -21.3,0 -42.9,1.5 -63.9,4.3 -228.4,30.2 -449.7,95.7 -657.8,194.7 -208.1,99 -398.5,229.3 -565.9,387.3 -97.3,91.7 -151.7,218.9 -149.3,349.1 2.3,122.6 55.6,238.4 146,317.5 81.5,71.3 186.6,110.6 296,110.6 118.9,0 232.4,-45.1 319.6,-127 l 0.2,-0.3 0.3,-0.2 c 201.6,-190.2 453.3,-310 728.1,-346.3 l 0.3,-0.1 h 0.4 c 108.8,-14.7 209.3,-67.2 283,-147.9 80.5,-88.2 122.4,-201.5 118.1,-319.1 -8.5,-236.9 -208.4,-422.6 -455.1,-422.6"
         style="fill:#d4af5b;fill-opacity:1;fill-rule:nonzero;stroke:none"
         id="path62" />
      <path
         d="m 10679.4,20292.9 c -195.4,0 -387.6,66.7 -541.3,187.9 -104.6,82.5 -187.71,186.7 -244.77,303.9 34.84,50.6 71.42,100.2 109.77,148.8 l 859.3,1089.7 c 130.2,-27.9 253.7,-85.4 359.1,-168.5 167.2,-131.9 280.4,-319.7 318.7,-528.9 45.4,-247.3 -17.8,-502.4 -173.5,-699.8 -166.9,-211.7 -417.4,-333.1 -687.3,-333.1"
         style="fill:#d4af5b;fill-opacity:1;fill-rule:nonzero;stroke:none"
         id="path64" />
      <path
         d="m 10242.8,18107.8 c -145.3,0 -279.95,70 -359.92,187 -66.57,97.2 -91.72,215.5 -70.81,332.9 19.15,107.7 76.06,205.8 160.22,276.3 l 0.27,0.2 0.27,0.2 c 212.77,177.6 361.67,413.4 430.37,681.9 l 0.1,0.3 0.1,0.3 c 52.9,205 234.9,348.2 442.6,348.2 23,0 46.2,-1.8 68.7,-5.4 119,-18.5 225.9,-87.9 293.3,-190.3 71.6,-108.8 93.6,-245.4 60.4,-374.7 -57.1,-223.2 -148.5,-435.1 -271.5,-630 -123,-194.8 -275,-368.5 -451.8,-515.9 -85.7,-71.6 -193,-111 -302.3,-111"
         style="fill:#d4af5b;fill-opacity:1;fill-rule:nonzero;stroke:none"
         id="path66" />
      <path
         d="m 16341.6,24286.3 c -159.6,0 -316.7,54.5 -442.2,153.5 -161.3,127.2 -260.1,317.8 -271.2,523 -9.3,173.6 44.8,344.4 152.5,481 136.5,173 341.2,272.2 561.7,272.2 159.6,0 316.7,-54.5 442.2,-153.5 136.7,-107.8 229.2,-261.2 260.5,-432.2 37.1,-202.1 -14.6,-410.5 -141.8,-571.8 -136.4,-173 -341.1,-272.2 -561.6,-272.2 h -0.1"
         style="fill:#ffffff;fill-opacity:1;fill-rule:nonzero;stroke:none"
         id="path68" />
      <path
         d="m 16342.4,25876 c -269.8,0 -520.3,-121.4 -687.3,-333.2 -131.8,-167.1 -198.1,-376.2 -186.6,-588.6 13.5,-251.1 134.5,-484.4 331.8,-640 153.7,-121.2 345.9,-187.9 541.3,-187.9 269.9,0 520.4,121.4 687.4,333.2 155.6,197.3 218.8,452.4 173.4,699.7 -38.3,209.2 -151.5,397.1 -318.7,528.9 -153.6,121.2 -345.9,187.9 -541.3,187.9 z m 0,-320 c 120.3,0 241.4,-38.9 343.2,-119.2 110.2,-86.9 178.6,-207.3 202.1,-335.3 27.8,-151.4 -7.2,-313.6 -110,-443.9 -109.5,-138.9 -272,-211.3 -436.1,-211.3 -120.2,0 -241.4,38.9 -343.1,119.2 -130.4,102.8 -202.2,252.3 -210.5,406 -7,129.9 31.4,262.9 118.4,373.2 109.5,138.9 271.9,211.3 436,211.3"
         style="fill:#3c5696;fill-opacity:1;fill-rule:nonzero;stroke:none"
         id="path70" />
      <path
         d="m 13145.2,24096.7 c -159.6,0 -316.7,54.6 -442.2,153.6 -161.3,127.1 -260.1,317.8 -271.2,523 -9.4,173.5 44.8,344.3 152.5,480.9 136.4,173 341.2,272.2 561.7,272.2 159.6,0 316.7,-54.5 442.2,-153.5 136.6,-107.7 229.1,-261.2 260.5,-432.2 37.1,-202.1 -14.6,-410.5 -141.8,-571.7 -136.4,-173.1 -341.1,-272.3 -561.6,-272.3 h -0.1"
         style="fill:#ffffff;fill-opacity:1;fill-rule:nonzero;stroke:none"
         id="path72" />
      <path
         d="m 13146,25686.4 c -269.8,0 -520.4,-121.4 -687.3,-333.1 -131.9,-167.2 -198.1,-376.3 -186.7,-588.7 13.6,-251.1 134.5,-484.3 331.9,-640 153.7,-121.1 345.9,-187.9 541.3,-187.9 269.9,0 520.4,121.4 687.3,333.2 155.7,197.4 218.9,452.4 173.5,699.8 -38.3,209.1 -151.5,397 -318.7,528.8 -153.7,121.2 -345.9,187.9 -541.3,187.9 m 0,-320 c 120.3,0 241.4,-38.9 343.2,-119.2 110.2,-86.9 178.6,-207.3 202.1,-335.3 27.8,-151.4 -7.2,-313.5 -110,-443.9 -109.5,-138.8 -272,-211.3 -436.1,-211.3 -120.2,0 -241.4,39 -343.2,119.2 -130.3,102.8 -202.1,252.3 -210.4,406 -7,130 31.4,263 118.3,373.2 109.5,138.9 272,211.3 436.1,211.3"
         style="fill:#3c5696;fill-opacity:1;fill-rule:nonzero;stroke:none"
         id="path74" />
      <path
         d="m 13202.6,21754.6 c -159.7,0.1 -316.7,54.6 -442.3,153.6 -161.2,127.2 -260.1,317.8 -271.1,523 -9.4,173.5 44.7,344.3 152.5,480.9 136.4,173 341.1,272.3 561.6,272.3 159.7,0 316.7,-54.6 442.3,-153.6 136.6,-107.7 229.1,-261.2 260.4,-432.2 37.1,-202 -14.6,-410.4 -141.8,-571.7 -136.4,-173 -341.1,-272.3 -561.6,-272.3 v 0"
         style="fill:#ffffff;fill-opacity:1;fill-rule:nonzero;stroke:none"
         id="path76" />
      <path
         d="m 13203.3,23344.3 c -269.8,0 -520.3,-121.4 -687.3,-333.1 -131.8,-167.2 -198.1,-376.2 -186.6,-588.7 13.5,-251 134.5,-484.3 331.8,-639.9 153.7,-121.2 346,-188 541.4,-188 269.8,0 520.3,121.5 687.3,333.2 155.6,197.4 218.9,452.4 173.5,699.8 -38.4,209.2 -151.6,397 -318.8,528.8 -153.6,121.2 -345.9,187.9 -541.3,187.9 z m 0,-320 c 120.3,0 241.4,-38.9 343.2,-119.1 110.3,-87 178.7,-207.3 202.1,-335.4 27.8,-151.4 -7.2,-313.5 -110,-443.9 -109.5,-138.8 -271.9,-211.3 -436,-211.3 -120.3,0 -241.5,39 -343.2,119.2 -130.4,102.8 -202.2,252.3 -210.5,406 -7,130 31.4,263 118.4,373.2 109.5,138.9 271.9,211.3 436,211.3"
         style="fill:#3c5696;fill-opacity:1;fill-rule:nonzero;stroke:none"
         id="path78" />
      <path
         d="m 12228.3,18545.4 c -159.6,0 -316.7,54.5 -442.2,153.5 -161.3,127.2 -260.1,317.8 -271.2,523 -9.3,173.5 44.8,344.3 152.5,480.9 136.5,173 341.2,272.3 561.7,272.3 159.6,0 316.7,-54.6 442.3,-153.6 136.6,-107.7 229,-261.2 260.4,-432.1 37.1,-202.1 -14.6,-410.5 -141.8,-571.8 -136.4,-173 -341.1,-272.2 -561.6,-272.2 h -0.1"
         style="fill:#ffffff;fill-opacity:1;fill-rule:nonzero;stroke:none"
         id="path80" />
      <path
         d="m 12229.1,20135.1 c -269.8,0 -520.3,-121.5 -687.3,-333.2 -131.8,-167.2 -198.1,-376.2 -186.6,-588.6 13.5,-251.1 134.5,-484.4 331.8,-640 153.7,-121.2 345.9,-187.9 541.4,-187.9 269.8,0 520.3,121.4 687.3,333.1 155.6,197.4 218.8,452.5 173.4,699.8 -38.3,209.2 -151.5,397 -318.7,528.9 -153.6,121.1 -345.9,187.9 -541.3,187.9 z m 0,-320 c 120.3,0 241.4,-39 343.2,-119.2 110.2,-87 178.6,-207.3 202.1,-335.4 27.8,-151.4 -7.2,-313.5 -110,-443.8 -109.5,-138.9 -271.9,-211.3 -436,-211.3 -120.3,0 -241.5,38.9 -343.2,119.2 -130.4,102.7 -202.2,252.2 -210.5,405.9 -7,130 31.4,263 118.4,373.3 109.5,138.8 271.9,211.3 436,211.3"
         style="fill:#3c5696;fill-opacity:1;fill-rule:nonzero;stroke:none"
         id="path82" />
      <path
         d="m 14512.7,25660.1 c -69.1,0 -134.4,25.3 -184,71.1 -111.4,103 -124.1,274.8 -29.4,399.6 188.6,247.7 292.5,542.7 300.7,853.6 4.4,156.9 122,282.8 273.5,293.3 6,0.4 12.2,0.6 18.3,0.6 73.2,0 142.5,-29.8 195.3,-84 56.8,-58.3 88.1,-140.4 85.8,-225 -11.3,-431.9 -155.7,-841.8 -417.5,-1185.5 -58.9,-77.4 -149.7,-123.7 -242.7,-123.7 v 0"
         style="fill:#ffffff;fill-opacity:1;fill-rule:nonzero;stroke:none"
         id="path84" />
      <path
         d="m 14891.8,27438.3 c -9.8,0 -19.8,-0.3 -29.6,-1 -117.3,-8.1 -225.7,-61.7 -304.8,-151 -72.6,-81.8 -114.2,-187.3 -117.3,-297.1 l -0.1,-0.3 v -0.3 c -7.2,-277.1 -99.8,-540.1 -267.8,-760.5 l -0.2,-0.3 -0.2,-0.3 c -66.4,-87.5 -100,-195.8 -94.7,-305 5.8,-119.2 56.6,-228.9 143.1,-308.9 79.1,-73.1 183,-113.5 292.5,-113.5 142.7,0 281.1,69.9 370.1,186.9 139.5,183.1 249.1,386.2 325.6,603.6 76.5,217.3 118.4,444.3 124.4,674.6 3.5,127.3 -44.3,251.6 -131.1,340.7 -83.1,85.4 -193.2,132.4 -309.9,132.4 m 0,-320 c 66.5,0 123.3,-63.4 121.2,-144.8 -10.4,-395.5 -145.1,-778 -384.9,-1092.8 -30.5,-40 -74.2,-60.6 -115.4,-60.6 -27.9,0 -54.6,9.4 -75.3,28.6 -51.4,47.5 -53.6,128.8 -10.6,185.4 207.6,272.5 324.2,603.6 333.1,946.1 2,71.1 54.7,133 124.6,137.8 2.4,0.2 4.9,0.3 7.3,0.3"
         style="fill:#3c5696;fill-opacity:1;fill-rule:nonzero;stroke:none"
         id="path86" />
      <path
         d="m 15010.9,22354 c -23,0 -45.9,3 -68.1,8.9 -146.6,38.9 -238.2,184.8 -213,339.4 51,307.1 4.8,616.5 -133.4,895.1 -69.4,140.7 -24.4,307 104.6,387.1 42.1,26.2 90.9,40 141.1,40 110.8,0 215.9,-67.7 267.8,-172.6 192,-386.9 256.1,-816.8 185.4,-1243 -24.4,-147.7 -144,-254.9 -284.4,-254.9 v 0"
         style="fill:#ffffff;fill-opacity:1;fill-rule:nonzero;stroke:none"
         id="path88" />
      <path
         d="m 14842.1,24184.5 c -80.1,0 -158.2,-22.2 -225.7,-64.2 -99.9,-62 -170.6,-160.1 -198.8,-276 -25.9,-106.2 -13.4,-218.9 35.2,-317.4 l 0.2,-0.3 0.1,-0.3 c 123.2,-248.3 164.3,-524.1 119,-797.5 l -0.1,-0.4 -0.1,-0.3 c -17.7,-108.4 3.2,-219.8 59,-313.9 60.8,-102.6 157.1,-175.8 271,-206 35.4,-9.4 72.1,-14.2 109,-14.2 219.1,0 405.1,163.5 442.3,388.9 37.6,227 39.5,457.8 5.5,685.8 -34,227.9 -103.1,448.1 -205.5,654.4 -38,76.7 -95.5,141.7 -166.1,187.8 -73.9,48.1 -158.6,73.6 -245,73.6 z m 0,-320 c 48,0 97.9,-30.1 124.4,-83.6 175.9,-354.4 235.7,-755.5 171,-1145.9 -12,-72.2 -67.9,-121 -126.6,-121 -9,0 -18,1.1 -27,3.5 -67.6,17.9 -107.6,88.8 -96.2,158.9 56.1,338 4.3,685.2 -147.9,992.1 -31.5,63.7 -13.9,143.2 45.6,180.1 17.3,10.8 36.8,15.9 56.7,15.9"
         style="fill:#3c5696;fill-opacity:1;fill-rule:nonzero;stroke:none"
         id="path90" />
      <path
         d="m 11360,22447.1 c -30.7,0 -61,4.9 -90.1,14.6 -71.5,23.8 -130.5,78.1 -161.9,149.1 -34.4,77.9 -33.5,169.1 2.4,250.1 174.9,395 464.5,719.1 837.4,937.3 49,28.6 104.1,43.8 159.5,43.8 112.3,0 210,-60.4 255,-157.7 63.8,-137.6 10.2,-301.3 -124.9,-380.7 -268.7,-157.1 -477.1,-390.4 -603,-674.8 -49.2,-110.5 -156.9,-181.7 -274.4,-181.7 v 0"
         style="fill:#ffffff;fill-opacity:1;fill-rule:nonzero;stroke:none"
         id="path92" />
      <path
         d="m 12107.3,24002 c -83.8,0 -166.9,-22.8 -240.4,-65.8 -198.7,-116.2 -377.4,-262.3 -530.9,-434.2 -153.6,-171.8 -278.7,-365.7 -371.9,-576.4 -54.2,-122 -55.1,-260.4 -2.4,-379.5 49.6,-112.1 143.5,-198.2 257.8,-236.2 45.2,-15.1 92.6,-22.8 140.5,-22.8 180.7,0 345.7,108.5 420.5,276.3 l 0.1,0.3 0.1,0.4 c 112.2,253.4 298,461.3 537.2,601.2 l 0.3,0.2 0.3,0.2 c 94.7,55.6 167,143 203.7,245.9 40.1,112.4 34.8,233.2 -14.8,340.1 -70.3,152 -227.4,250.3 -400.1,250.3 m 0,-320 c 47.8,0 90.8,-23.8 109.8,-64.9 29.5,-63.5 0.6,-139.5 -60.7,-175.5 -295.7,-173 -529.6,-434.8 -668.3,-748 -23.2,-52.2 -74.5,-86.5 -128.1,-86.5 -13.2,0 -26.5,2.1 -39.5,6.4 -66.3,22.1 -98,105.4 -63.8,182.6 160.2,361.8 430.3,664.2 771.9,863.9 25.6,15 52.8,22 78.7,22"
         style="fill:#3c5696;fill-opacity:1;fill-rule:nonzero;stroke:none"
         id="path94" />
      <path
         d="m 13424.7,20296.6 c -14.3,0 -28.8,1 -43,2.9 -428.2,56.7 -820.7,243.4 -1135,539.9 -64.4,60.7 -100.5,144.4 -99,229.6 1.5,77.6 34.9,150.6 91.7,200.2 52.1,45.7 119.8,70.9 190.4,70.9 78,0 152.6,-29.7 210,-83.6 226.4,-213.7 508.9,-348.1 817.2,-388.9 155.6,-20.9 268.5,-151 262.9,-302.8 -5.4,-150.3 -135.1,-268.2 -295.2,-268.2 v 0"
         style="fill:#ffffff;fill-opacity:1;fill-rule:nonzero;stroke:none"
         id="path96" />
      <path
         d="m 12429.8,21500.1 c -109.4,0 -214.5,-39.3 -296,-110.6 -90.4,-79.1 -143.7,-194.9 -146,-317.5 -2.4,-130.2 52,-257.4 149.3,-349.1 167.4,-158 357.8,-288.3 565.9,-387.3 208.1,-99 429.4,-164.5 657.8,-194.7 21,-2.8 42.6,-4.3 63.9,-4.3 246.7,0 446.6,185.7 455.1,422.6 4.3,117.5 -37.6,230.9 -118.1,319.1 -73.7,80.7 -174.2,133.2 -283,147.9 h -0.4 l -0.3,0.1 c -274.8,36.3 -526.5,156.1 -728.1,346.3 l -0.3,0.2 -0.2,0.3 c -87.2,81.9 -200.7,127 -319.6,127 z m 0,-320 c 36,0 72.5,-13.9 100.5,-40.2 249.1,-235.1 566.1,-385.9 905.7,-430.9 70.5,-9.4 126.6,-68.4 124,-138.3 -2.3,-63.6 -61.5,-114.1 -135.3,-114.1 -7.2,0 -14.5,0.5 -21.9,1.5 -392.3,51.9 -758.5,226.1 -1046.3,497.7 -61.4,57.9 -64.4,147 -11.8,193 24.2,21.2 54.4,31.3 85.1,31.3"
         style="fill:#3c5696;fill-opacity:1;fill-rule:nonzero;stroke:none"
         id="path98" />
      <path
         d="m 9856.93,17656.7 c -2,0.9 -4.01,1.9 -6.01,2.9 2.01,-1 4,-1.9 6.01,-2.9 v 0 m -6.87,3.3 c -0.86,0.5 -1.74,0.9 -2.6,1.3 0.87,-0.4 1.73,-0.8 2.6,-1.3 m -3.56,1.8 c -0.86,0.4 -1.72,0.9 -2.58,1.3 0.87,-0.4 1.71,-0.9 2.58,-1.3 m -3.19,1.6 c -1.68,0.8 -3.33,1.7 -5,2.5 1.65,-0.8 3.34,-1.7 5,-2.5 m -6.17,3.1 c -0.71,0.3 -1.42,0.7 -2.12,1 0.72,-0.3 1.4,-0.7 2.12,-1 m -3.7,1.8 c -0.67,0.4 -1.36,0.7 -2.03,1 0.68,-0.3 1.35,-0.6 2.03,-1 m -3.75,1.9 c -0.65,0.3 -1.28,0.7 -1.92,1 0.64,-0.3 1.27,-0.7 1.92,-1 m -4.1,2.1 c -0.8,0.4 -1.6,0.8 -2.39,1.2 0.79,-0.4 1.59,-0.8 2.39,-1.2 m -4.94,2.5 c -0.49,0.2 -0.99,0.5 -1.48,0.7 0.49,-0.2 0.99,-0.5 1.48,-0.7 m -3.77,1.9 c -0.5,0.3 -0.99,0.5 -1.49,0.8 0.49,-0.3 1,-0.5 1.49,-0.8 m -3.96,2 c -0.4,0.3 -0.8,0.5 -1.2,0.7 0.41,-0.2 0.79,-0.4 1.2,-0.7 m -4.85,2.5 c -0.06,0.1 -0.09,0.1 -0.15,0.1 0.05,0 0.1,0 0.15,-0.1 m -3.82,2 c -0.33,0.2 -0.66,0.4 -1,0.5 0.34,-0.1 0.67,-0.3 1,-0.5 m -3.77,2 c -0.38,0.2 -0.78,0.4 -1.16,0.6 0.39,-0.2 0.77,-0.4 1.16,-0.6 m -3.91,2 c -0.35,0.2 -0.69,0.4 -1.04,0.5 0.34,-0.1 0.7,-0.3 1.04,-0.5 m -8.55,4.5 c -0.29,0.1 -0.56,0.3 -0.84,0.4 0.28,-0.1 0.55,-0.3 0.84,-0.4 m -3.8,2 c -0.32,0.2 -0.66,0.3 -0.98,0.5 0.33,-0.2 0.65,-0.3 0.98,-0.5 m -4.06,2.1 c -0.22,0.2 -0.45,0.3 -0.67,0.4 0.22,-0.1 0.45,-0.3 0.67,-0.4 m -8.34,4.5 c -0.21,0.1 -0.42,0.2 -0.63,0.3 0.22,-0.1 0.41,-0.2 0.63,-0.3 m -3.83,2 c -0.25,0.2 -0.51,0.3 -0.76,0.4 0.26,-0.1 0.5,-0.2 0.76,-0.4 m -4.1,2.2 c -0.14,0.1 -0.29,0.2 -0.44,0.3 0.15,-0.1 0.29,-0.2 0.44,-0.3 m -8.24,4.5 c -0.1,0 -0.22,0.1 -0.33,0.2 0.12,-0.1 0.22,-0.1 0.33,-0.2 m -3.84,2.1 c -0.19,0.1 -0.35,0.2 -0.54,0.3 0.18,-0.1 0.36,-0.2 0.54,-0.3 m -4.16,2.2 c -0.06,0.1 -0.11,0.1 -0.17,0.1 0.05,0 0.12,0 0.17,-0.1 m -8.07,4.5 c -0.07,0 -0.1,0 -0.17,0.1 0.05,0 0.12,-0.1 0.17,-0.1 m -3.82,2.1 c -0.15,0.1 -0.31,0.2 -0.45,0.3 0.16,-0.1 0.28,-0.2 0.45,-0.3 m -4.15,2.3 c -0.03,0 -0.07,0 -0.1,0.1 0.03,-0.1 0.07,-0.1 0.1,-0.1 m -7.99,4.5 c -0.07,0 -0.13,0 -0.2,0.1 0.07,-0.1 0.14,-0.1 0.2,-0.1 m -3.8,2.1 c -0.17,0.1 -0.32,0.2 -0.49,0.3 0.17,-0.1 0.32,-0.2 0.49,-0.3 m -4.07,2.3 c -0.07,0 -0.14,0.1 -0.22,0.1 0.07,0 0.15,-0.1 0.22,-0.1 m -8.01,4.5 c -0.11,0.1 -0.2,0.1 -0.3,0.2 0.1,0 0.2,-0.1 0.3,-0.2 m -3.79,2.2 c -0.17,0.1 -0.36,0.2 -0.53,0.3 0.16,-0.1 0.37,-0.2 0.53,-0.3 m -4.04,2.3 c -0.1,0.1 -0.19,0.1 -0.28,0.2 0.1,-0.1 0.18,-0.1 0.28,-0.2 m -8.03,4.6 c -0.1,0.1 -0.18,0.1 -0.27,0.2 0.1,-0.1 0.17,-0.1 0.27,-0.2 m -3.76,2.2 c -0.19,0.1 -0.38,0.2 -0.56,0.3 0.18,-0.1 0.37,-0.2 0.56,-0.3 m -4.02,2.4 c -0.1,0 -0.2,0.1 -0.3,0.1 0.1,0 0.2,-0.1 0.3,-0.1 m -7.98,4.6 c -0.13,0.1 -0.28,0.2 -0.41,0.3 0.13,-0.1 0.28,-0.2 0.41,-0.3 m -3.73,2.2 c -0.22,0.1 -0.45,0.3 -0.67,0.4 0.23,-0.1 0.44,-0.3 0.67,-0.4 m -3.9,2.3 c -0.17,0.1 -0.36,0.2 -0.53,0.3 0.16,-0.1 0.37,-0.2 0.53,-0.3 m -8.06,4.8 c -0.19,0.1 -0.37,0.2 -0.55,0.3 0.18,-0.1 0.37,-0.2 0.55,-0.3 m -3.73,2.2 c -0.25,0.2 -0.5,0.3 -0.74,0.5 0.24,-0.2 0.49,-0.3 0.74,-0.5 m -3.92,2.4 c -0.18,0.1 -0.35,0.2 -0.52,0.3 0.16,-0.1 0.35,-0.2 0.52,-0.3 m -8.02,4.8 c -0.21,0.1 -0.42,0.3 -0.63,0.4 0.21,-0.1 0.41,-0.3 0.63,-0.4 m -3.63,2.2 c -0.31,0.2 -0.61,0.4 -0.92,0.6 0.29,-0.2 0.62,-0.4 0.92,-0.6 m -3.88,2.4 c -0.23,0.1 -0.48,0.3 -0.71,0.4 0.24,-0.1 0.47,-0.3 0.71,-0.4 m -8.03,4.9 c -0.3,0.2 -0.57,0.3 -0.87,0.5 0.28,-0.2 0.59,-0.3 0.87,-0.5 m -3.68,2.2 c -0.33,0.2 -0.64,0.4 -0.96,0.6 0.32,-0.2 0.63,-0.4 0.96,-0.6 m -3.86,2.4 c -0.24,0.2 -0.5,0.3 -0.75,0.5 0.26,-0.2 0.49,-0.3 0.75,-0.5 m -8.01,5 c -0.31,0.2 -0.63,0.4 -0.95,0.6 0.33,-0.2 0.63,-0.4 0.95,-0.6 m -3.62,2.3 c -0.36,0.2 -0.74,0.4 -1.11,0.7 0.38,-0.3 0.74,-0.5 1.11,-0.7 m -3.71,2.3 c -0.34,0.2 -0.69,0.4 -1.03,0.6 0.35,-0.2 0.68,-0.4 1.03,-0.6 m -4.45,2.8 c -0.11,0.1 -0.21,0.1 -0.33,0.2 0.12,-0.1 0.21,-0.1 0.33,-0.2 m -3.65,2.3 c -0.41,0.2 -0.83,0.5 -1.24,0.8 0.42,-0.3 0.82,-0.6 1.24,-0.8 m -3.53,2.2 c -0.46,0.3 -0.95,0.6 -1.41,0.9 0.47,-0.3 0.94,-0.6 1.41,-0.9 m -3.65,2.3 c -0.43,0.3 -0.87,0.6 -1.31,0.9 0.44,-0.3 0.88,-0.6 1.31,-0.9 m -4.15,2.7 c -0.45,0.3 -0.9,0.6 -1.35,0.9 0.45,-0.3 0.9,-0.6 1.35,-0.9 m -4.04,2.6 c -0.49,0.3 -0.97,0.6 -1.46,0.9 0.48,-0.3 0.98,-0.6 1.46,-0.9 m -3.54,2.3 c -0.5,0.3 -1.02,0.6 -1.52,0.9 0.51,-0.3 1,-0.6 1.52,-0.9 m -3.56,2.2 c -0.5,0.4 -0.99,0.7 -1.5,1 0.5,-0.3 1,-0.6 1.5,-1 m -3.88,2.6 c -0.71,0.4 -1.4,0.9 -2.12,1.3 0.71,-0.4 1.41,-0.9 2.12,-1.3 m -4.36,2.8 c -0.55,0.4 -1.11,0.7 -1.66,1.1 0.54,-0.4 1.11,-0.8 1.66,-1.1 m -3.44,2.2 c -0.6,0.4 -1.19,0.8 -1.79,1.2 0.59,-0.4 1.19,-0.8 1.79,-1.2 m -3.47,2.3 c -0.6,0.4 -1.21,0.8 -1.81,1.2 0.61,-0.4 1.2,-0.8 1.81,-1.2 m -3.47,2.3 c -1.11,0.7 -2.21,1.4 -3.32,2.2 1.12,-0.8 2.2,-1.5 3.32,-2.2 m -4.86,3.2 c -0.65,0.4 -1.33,0.9 -1.97,1.3 0.65,-0.4 1.31,-0.9 1.97,-1.3 m -3.4,2.2 c -0.68,0.5 -1.34,0.9 -2.01,1.4 0.67,-0.5 1.34,-0.9 2.01,-1.4 m -3.41,2.3 c -0.67,0.4 -1.35,0.9 -2.02,1.3 0.69,-0.4 1.34,-0.9 2.02,-1.3 m -3.26,2.2 c -1.34,0.9 -2.7,1.8 -4.04,2.7 1.33,-0.9 2.71,-1.8 4.04,-2.7 m -5.16,3.4 c -0.7,0.5 -1.42,1 -2.13,1.4 0.72,-0.4 1.42,-0.9 2.13,-1.4 m -3.36,2.3 c -0.72,0.4 -1.42,0.9 -2.14,1.4 0.7,-0.5 1.44,-1 2.14,-1.4 m -3.36,2.2 c -0.72,0.5 -1.45,1 -2.17,1.5 0.73,-0.5 1.44,-1 2.17,-1.5 m -2.94,2 c -1.64,1.1 -3.28,2.2 -4.92,3.3 1.64,-1.1 3.28,-2.2 4.92,-3.3 m -5.48,3.7 c -0.77,0.6 -1.54,1.1 -2.31,1.6 0.77,-0.5 1.53,-1 2.31,-1.6 m -3.36,2.3 c -0.75,0.5 -1.5,1 -2.25,1.5 0.76,-0.5 1.49,-1 2.25,-1.5 m -3.3,2.3 c -0.78,0.5 -1.54,1 -2.32,1.5 0.78,-0.5 1.54,-1 2.32,-1.5 m -2.7,1.8 c -2.74,1.9 -5.48,3.8 -8.21,5.7 2.73,-1.9 5.46,-3.8 8.21,-5.7 m -9.08,6.3 c -0.78,0.5 -1.58,1.1 -2.37,1.6 0.79,-0.5 1.59,-1.1 2.37,-1.6 m -3.22,2.2 c -0.83,0.6 -1.66,1.1 -2.48,1.7 0.83,-0.6 1.64,-1.1 2.48,-1.7 m -2.52,1.7 c -2.85,2 -5.69,4 -8.54,6 2.84,-2 5.7,-4 8.54,-6 m -9.28,6.5 c -0.84,0.6 -1.65,1.2 -2.48,1.8 0.83,-0.6 1.64,-1.2 2.48,-1.8 m -3.16,2.2 c -3.73,2.7 -7.45,5.3 -11.18,7.9 3.72,-2.6 7.46,-5.2 11.18,-7.9 m -11.83,8.4 c -0.84,0.6 -1.69,1.2 -2.54,1.8 0.85,-0.6 1.7,-1.2 2.54,-1.8 m -3.11,2.2 c -3.77,2.7 -7.53,5.4 -11.3,8.1 3.75,-2.7 7.54,-5.4 11.3,-8.1 m -11.79,8.5 c -0.86,0.6 -1.73,1.2 -2.59,1.8 0.87,-0.6 1.72,-1.2 2.59,-1.8 m -3.14,2.2 c -3.74,2.7 -7.49,5.5 -11.23,8.2 3.75,-2.7 7.47,-5.5 11.23,-8.2 m -11.77,8.6 c -0.85,0.6 -1.72,1.2 -2.57,1.9 0.87,-0.7 1.71,-1.3 2.57,-1.9 m -3.11,2.3 c -3.7,2.7 -7.39,5.4 -11.09,8.1 3.71,-2.7 7.38,-5.4 11.09,-8.1 m -11.78,8.6 c -0.81,0.6 -1.62,1.2 -2.43,1.8 0.8,-0.6 1.63,-1.2 2.43,-1.8 m -3.15,2.4 c -3.62,2.7 -7.25,5.4 -10.86,8.1 3.61,-2.7 7.24,-5.4 10.86,-8.1 m -11.68,8.7 c -0.75,0.6 -1.51,1.1 -2.27,1.7 0.75,-0.6 1.52,-1.1 2.27,-1.7 m -3.24,2.4 c -0.75,0.6 -1.52,1.2 -2.27,1.8 0.77,-0.6 1.5,-1.2 2.27,-1.8 m -2.77,2.1 c -1.63,1.3 -3.25,2.5 -4.88,3.7 1.62,-1.2 3.25,-2.4 4.88,-3.7 m -5.52,4.2 c -0.72,0.6 -1.43,1.1 -2.15,1.6 0.72,-0.5 1.43,-1 2.15,-1.6 m -3.28,2.5 c -0.69,0.5 -1.4,1.1 -2.08,1.6 0.7,-0.5 1.38,-1.1 2.08,-1.6 m -3.23,2.5 c -0.7,0.5 -1.4,1 -2.11,1.6 0.71,-0.6 1.41,-1.1 2.11,-1.6 m -3.04,2.3 c -1.31,1 -2.62,2 -3.93,3 1.32,-1 2.62,-2 3.93,-3 m -5.19,4 c -0.61,0.5 -1.24,0.9 -1.86,1.4 0.61,-0.5 1.25,-1 1.86,-1.4 m -3.32,2.5 c -0.59,0.5 -1.19,1 -1.78,1.4 0.59,-0.4 1.18,-0.9 1.78,-1.4 m -3.36,2.6 c -0.56,0.5 -1.12,0.9 -1.68,1.3 0.56,-0.4 1.12,-0.8 1.68,-1.3 m -3.62,2.9 c -0.79,0.6 -1.57,1.2 -2.36,1.8 0.79,-0.6 1.57,-1.2 2.36,-1.8 m -4.39,3.4 c -0.5,0.4 -1,0.7 -1.49,1.1 0.5,-0.4 0.98,-0.7 1.49,-1.1 m -3.39,2.6 c -0.46,0.4 -0.92,0.7 -1.39,1.1 0.47,-0.4 0.92,-0.7 1.39,-1.1 m -3.5,2.8 c -0.4,0.3 -0.8,0.6 -1.2,0.9 0.41,-0.3 0.79,-0.6 1.2,-0.9"
         style="fill:#cbdee9;fill-opacity:1;fill-rule:nonzero;stroke:none"
         id="path100" />
      <path
         d="m 9578.94,18205.2 c -6.4,4.9 -12.8,9.9 -19.17,14.9 h -0.01 c -1058.64,834.9 -1240.1,2369.8 -405.28,3428.5 l 7007.72,8886.5 870.9,-686.8 L 15093,27388 c -61.6,32.9 -130.1,50.3 -201.2,50.3 -9.8,0 -19.8,-0.3 -29.6,-1 -117.3,-8.1 -225.7,-61.7 -304.8,-151 -72.6,-81.8 -114.2,-187.3 -117.3,-297.1 l -0.1,-0.3 v -0.3 c -7.2,-277.1 -99.8,-540.1 -267.8,-760.5 l -0.2,-0.3 -0.2,-0.3 c -11.8,-15.6 -22.6,-31.8 -32.3,-48.6 l -505.8,-641.4 c -143.6,96.4 -314.4,148.9 -487.7,148.9 -269.8,0 -520.4,-121.4 -687.3,-333.1 -131.9,-167.2 -198.1,-376.3 -186.7,-588.7 12.4,-228.9 114,-443 281.4,-597 l -192.2,-243.8 c -72.8,49.8 -161.1,78.2 -253.9,78.2 -83.8,0 -166.9,-22.8 -240.4,-65.8 -198.7,-116.2 -377.4,-262.3 -530.9,-434.2 -153.6,-171.8 -278.7,-365.7 -371.9,-576.4 -54.2,-122 -55.1,-260.4 -2.4,-379.5 34.9,-79.1 92,-145.2 162.7,-190.7 l -262,-332.2 c -59.7,12.8 -120.8,19.4 -182.2,19.4 -269.8,0 -520.4,-121.4 -687.33,-333.2 -131.82,-167.1 -198.1,-376.2 -186.63,-588.6 6.37,-118.1 36.48,-232.2 87.09,-336.1 -178.44,-259 -310.68,-543.1 -393.91,-846.7 -96.05,-350.3 -123.03,-711.5 -80.23,-1073.7 26.87,-227.3 80.37,-447.8 159.75,-659.1"
         style="fill:#e3b961;fill-opacity:1;fill-rule:nonzero;stroke:none"
         id="path102" />
      <path
         d="m 9856.93,17656.7 c -2.01,1 -4,1.9 -6.01,2.9 -0.29,0.2 -0.57,0.3 -0.86,0.4 -0.87,0.5 -1.73,0.9 -2.6,1.3 -0.32,0.2 -0.64,0.4 -0.96,0.5 -0.87,0.4 -1.71,0.9 -2.58,1.3 -0.21,0.1 -0.41,0.2 -0.61,0.3 -1.66,0.8 -3.35,1.7 -5,2.5 -0.4,0.2 -0.78,0.4 -1.17,0.6 -0.72,0.3 -1.4,0.7 -2.12,1 -0.53,0.3 -1.05,0.6 -1.58,0.8 -0.68,0.4 -1.35,0.7 -2.03,1 -0.57,0.3 -1.15,0.6 -1.72,0.9 -0.65,0.3 -1.28,0.7 -1.92,1 -0.72,0.4 -1.46,0.7 -2.18,1.1 -0.8,0.4 -1.6,0.8 -2.39,1.2 -0.86,0.4 -1.69,0.9 -2.55,1.3 -0.49,0.2 -0.99,0.5 -1.48,0.7 -0.76,0.4 -1.53,0.8 -2.29,1.2 -0.49,0.3 -1,0.5 -1.49,0.8 -0.82,0.4 -1.65,0.8 -2.47,1.2 -0.41,0.3 -0.79,0.5 -1.2,0.7 -1.22,0.6 -2.44,1.2 -3.65,1.8 -0.05,0.1 -0.1,0.1 -0.15,0.1 -1.21,0.6 -2.45,1.3 -3.67,1.9 -0.33,0.2 -0.66,0.4 -1,0.5 -0.93,0.5 -1.84,1 -2.77,1.5 -0.39,0.2 -0.77,0.4 -1.16,0.6 -0.92,0.5 -1.83,0.9 -2.75,1.4 -0.34,0.2 -0.7,0.4 -1.04,0.5 -2.51,1.4 -5.01,2.7 -7.51,4 -0.29,0.1 -0.56,0.3 -0.84,0.4 -0.98,0.5 -1.98,1.1 -2.96,1.6 -0.33,0.2 -0.65,0.3 -0.98,0.5 -1.03,0.5 -2.05,1.1 -3.08,1.6 -0.22,0.1 -0.45,0.3 -0.67,0.4 -2.56,1.3 -5.11,2.7 -7.67,4.1 -0.22,0.1 -0.41,0.2 -0.63,0.3 -1.07,0.6 -2.13,1.2 -3.2,1.7 -0.26,0.2 -0.5,0.3 -0.76,0.4 -1.11,0.6 -2.23,1.2 -3.34,1.8 -0.15,0.1 -0.29,0.2 -0.44,0.3 -2.61,1.4 -5.2,2.8 -7.8,4.2 -0.11,0.1 -0.21,0.1 -0.33,0.2 -1.17,0.6 -2.34,1.2 -3.51,1.9 -0.18,0.1 -0.36,0.2 -0.54,0.3 -1.2,0.6 -2.42,1.3 -3.62,1.9 -0.05,0.1 -0.12,0.1 -0.17,0.1 -2.63,1.5 -5.28,2.9 -7.9,4.4 -0.05,0 -0.12,0.1 -0.17,0.1 -1.21,0.7 -2.43,1.3 -3.65,2 -0.17,0.1 -0.29,0.2 -0.45,0.3 -1.24,0.6 -2.46,1.3 -3.7,2 -0.03,0 -0.07,0 -0.1,0.1 -2.63,1.4 -5.26,2.9 -7.89,4.4 -0.06,0 -0.13,0 -0.2,0.1 -1.19,0.6 -2.41,1.3 -3.6,2 -0.17,0.1 -0.32,0.2 -0.49,0.3 -1.19,0.6 -2.39,1.3 -3.58,2 -0.07,0 -0.15,0.1 -0.22,0.1 -2.6,1.5 -5.2,3 -7.79,4.4 -0.1,0.1 -0.2,0.2 -0.3,0.2 -1.16,0.7 -2.33,1.3 -3.49,2 -0.16,0.1 -0.37,0.2 -0.53,0.3 -1.18,0.7 -2.34,1.3 -3.51,2 -0.1,0.1 -0.18,0.1 -0.28,0.2 -2.58,1.5 -5.18,2.9 -7.75,4.4 -0.1,0.1 -0.17,0.1 -0.27,0.2 -1.17,0.7 -2.33,1.3 -3.49,2 -0.19,0.1 -0.38,0.2 -0.56,0.3 -1.15,0.7 -2.31,1.4 -3.46,2.1 -0.1,0 -0.2,0.1 -0.3,0.1 -2.56,1.5 -5.13,3 -7.68,4.5 -0.13,0.1 -0.28,0.2 -0.41,0.3 -1.11,0.6 -2.21,1.3 -3.32,1.9 -0.23,0.1 -0.44,0.3 -0.67,0.4 -1.08,0.6 -2.15,1.3 -3.23,1.9 -0.16,0.1 -0.37,0.2 -0.53,0.3 -2.51,1.5 -5.03,3 -7.53,4.5 -0.18,0.1 -0.37,0.2 -0.55,0.3 -1.06,0.7 -2.12,1.3 -3.18,1.9 -0.25,0.2 -0.5,0.3 -0.74,0.5 -1.07,0.6 -2.12,1.2 -3.18,1.9 -0.17,0.1 -0.36,0.2 -0.52,0.3 -2.51,1.5 -5.01,3 -7.5,4.5 -0.22,0.1 -0.42,0.3 -0.63,0.4 -1.01,0.6 -2,1.2 -3,1.8 -0.3,0.2 -0.63,0.4 -0.92,0.6 -0.99,0.6 -1.97,1.2 -2.96,1.8 -0.24,0.1 -0.47,0.3 -0.71,0.4 -2.44,1.5 -4.89,3 -7.32,4.5 -0.28,0.2 -0.59,0.3 -0.87,0.5 -0.93,0.6 -1.88,1.2 -2.81,1.7 -0.33,0.2 -0.64,0.4 -0.96,0.6 -0.97,0.6 -1.93,1.2 -2.9,1.8 -0.26,0.2 -0.49,0.3 -0.75,0.5 -2.43,1.5 -4.83,3 -7.26,4.5 -0.32,0.2 -0.62,0.4 -0.95,0.6 -0.89,0.5 -1.78,1.1 -2.67,1.7 -0.37,0.2 -0.73,0.4 -1.11,0.7 -0.86,0.5 -1.73,1 -2.6,1.6 -0.35,0.2 -0.68,0.4 -1.03,0.6 -1.14,0.7 -2.28,1.5 -3.42,2.2 -0.12,0.1 -0.21,0.1 -0.33,0.2 -1.1,0.7 -2.21,1.4 -3.32,2.1 -0.42,0.2 -0.82,0.5 -1.24,0.8 -0.77,0.5 -1.53,0.9 -2.29,1.4 -0.47,0.3 -0.94,0.6 -1.41,0.9 -0.75,0.5 -1.48,1 -2.24,1.4 -0.43,0.3 -0.87,0.6 -1.31,0.9 -0.94,0.6 -1.89,1.2 -2.84,1.8 -0.45,0.3 -0.9,0.6 -1.35,0.9 -0.89,0.5 -1.8,1.1 -2.69,1.7 -0.48,0.3 -0.98,0.6 -1.46,0.9 -0.69,0.5 -1.39,0.9 -2.08,1.4 -0.52,0.3 -1.01,0.6 -1.52,0.9 -0.69,0.5 -1.36,0.9 -2.04,1.3 -0.5,0.4 -1,0.7 -1.5,1 -0.79,0.5 -1.59,1 -2.38,1.6 -0.71,0.4 -1.41,0.9 -2.12,1.3 -0.75,0.5 -1.49,1 -2.24,1.5 -0.55,0.3 -1.12,0.7 -1.66,1.1 -0.59,0.4 -1.2,0.7 -1.78,1.1 -0.6,0.4 -1.2,0.8 -1.79,1.2 -0.56,0.4 -1.12,0.7 -1.68,1.1 -0.61,0.4 -1.2,0.8 -1.81,1.2 -0.55,0.4 -1.1,0.7 -1.66,1.1 -1.12,0.7 -2.2,1.4 -3.32,2.2 -0.51,0.3 -1.03,0.6 -1.54,1 -0.66,0.4 -1.32,0.9 -1.97,1.3 -0.48,0.3 -0.96,0.6 -1.43,0.9 -0.67,0.5 -1.34,0.9 -2.01,1.4 -0.47,0.3 -0.93,0.6 -1.4,0.9 -0.68,0.4 -1.33,0.9 -2.02,1.3 -0.41,0.3 -0.82,0.6 -1.24,0.9 -1.33,0.9 -2.71,1.8 -4.04,2.7 -0.38,0.2 -0.74,0.5 -1.12,0.7 -0.71,0.5 -1.41,1 -2.13,1.4 -0.41,0.3 -0.82,0.6 -1.23,0.9 -0.7,0.4 -1.44,0.9 -2.14,1.4 -0.4,0.3 -0.81,0.6 -1.22,0.8 -0.73,0.5 -1.44,1 -2.17,1.5 -0.26,0.2 -0.51,0.3 -0.77,0.5 -1.64,1.1 -3.28,2.2 -4.92,3.3 -0.19,0.2 -0.37,0.3 -0.56,0.4 -0.78,0.6 -1.54,1.1 -2.31,1.6 -0.35,0.2 -0.7,0.5 -1.05,0.7 -0.76,0.5 -1.49,1 -2.25,1.5 -0.34,0.3 -0.71,0.5 -1.05,0.8 -0.78,0.5 -1.54,1 -2.32,1.5 -0.13,0.1 -0.26,0.2 -0.38,0.3 -2.75,1.9 -5.48,3.8 -8.21,5.7 -0.29,0.2 -0.58,0.4 -0.87,0.6 -0.78,0.5 -1.58,1.1 -2.37,1.6 -0.28,0.2 -0.57,0.4 -0.85,0.6 -0.84,0.6 -1.65,1.1 -2.48,1.7 -0.01,0 -0.03,0 -0.04,0 -2.84,2 -5.7,4 -8.54,6 -0.25,0.2 -0.5,0.3 -0.74,0.5 -0.84,0.6 -1.65,1.2 -2.48,1.8 -0.22,0.1 -0.46,0.3 -0.68,0.4 -3.72,2.7 -7.46,5.3 -11.18,7.9 -0.21,0.2 -0.43,0.3 -0.65,0.5 -0.84,0.6 -1.69,1.2 -2.54,1.8 -0.18,0.1 -0.39,0.3 -0.57,0.4 -3.76,2.7 -7.55,5.4 -11.3,8.1 -0.16,0.1 -0.32,0.2 -0.49,0.4 -0.87,0.6 -1.72,1.2 -2.59,1.8 -0.19,0.2 -0.36,0.3 -0.55,0.4 -3.76,2.7 -7.48,5.5 -11.23,8.2 -0.18,0.1 -0.35,0.2 -0.54,0.4 -0.86,0.6 -1.7,1.2 -2.57,1.9 -0.18,0.1 -0.35,0.2 -0.54,0.4 -3.71,2.7 -7.38,5.4 -11.09,8.1 -0.23,0.2 -0.46,0.4 -0.69,0.5 -0.8,0.6 -1.63,1.2 -2.43,1.8 -0.24,0.2 -0.48,0.4 -0.72,0.6 -3.62,2.7 -7.25,5.4 -10.86,8.1 -0.28,0.2 -0.54,0.4 -0.82,0.6 -0.75,0.6 -1.52,1.1 -2.27,1.7 -0.32,0.3 -0.64,0.5 -0.97,0.7 -0.77,0.6 -1.5,1.2 -2.27,1.8 -0.17,0.1 -0.33,0.2 -0.5,0.3 -1.63,1.3 -3.26,2.5 -4.88,3.7 -0.21,0.2 -0.43,0.4 -0.64,0.5 -0.72,0.6 -1.43,1.1 -2.15,1.6 -0.38,0.3 -0.75,0.6 -1.13,0.9 -0.7,0.5 -1.38,1.1 -2.08,1.6 -0.38,0.3 -0.77,0.6 -1.15,0.9 -0.7,0.5 -1.4,1 -2.11,1.6 -0.31,0.2 -0.62,0.5 -0.93,0.7 -1.31,1 -2.61,2 -3.93,3 -0.41,0.3 -0.84,0.7 -1.26,1 -0.61,0.4 -1.25,0.9 -1.86,1.4 -0.49,0.4 -0.97,0.8 -1.46,1.1 -0.6,0.5 -1.19,1 -1.78,1.4 -0.52,0.4 -1.05,0.8 -1.58,1.2 -0.56,0.5 -1.12,0.9 -1.68,1.3 -0.65,0.5 -1.3,1 -1.94,1.6 -0.79,0.6 -1.57,1.2 -2.36,1.8 -0.68,0.5 -1.35,1 -2.03,1.6 -0.51,0.4 -0.99,0.7 -1.49,1.1 -0.64,0.5 -1.26,1 -1.9,1.5 -0.47,0.4 -0.92,0.7 -1.39,1.1 -0.7,0.6 -1.41,1.1 -2.11,1.7 -0.41,0.3 -0.79,0.6 -1.2,0.9 -1.1,0.9 -2.18,1.7 -3.27,2.6 v 0 c -292.59,230.7 -531.32,512 -709.58,836 -172.08,312.9 -280.67,652 -322.75,1008 -12.99,109.8 -19.44,219.6 -19.38,329 0.13,245.1 32.96,488.3 98.23,726.4 97.78,356.6 264.35,685.8 495.08,978.4 l 7007.68,8886.6 198.2,251.3 251.2,-198.2 871,-686.8 -98.8,-125.2 -99.4,-126.1 -870.9,686.8 -7007.72,-8886.5 C 8319.66,20589.9 8501.12,19055 9559.76,18220.1 h 0.01 c 6.37,-5 12.77,-10 19.17,-14.9 47.14,-125.5 103.39,-247.8 168.62,-366.4 34.27,-62.3 70.75,-123 109.37,-182.1"
         style="fill:#364d86;fill-opacity:1;fill-rule:nonzero;stroke:none"
         id="path104" />
      <path
         d="m 9893.33,20784.7 c -50.61,103.9 -80.72,218 -87.09,336.1 -11.47,212.4 54.81,421.5 186.63,588.6 166.93,211.8 417.53,333.2 687.33,333.2 61.4,0 122.5,-6.6 182.2,-19.4 l -859.3,-1089.7 c -38.35,-48.6 -74.93,-98.2 -109.77,-148.8"
         style="fill:#bf9d54;fill-opacity:1;fill-rule:nonzero;stroke:none"
         id="path106" />
      <path
         d="m 12752.5,24420 c -99,99.1 -153.8,228.9 -160.9,361.9 -7,130 31.4,263 118.3,373.2 109.5,138.9 272,211.3 436.1,211.3 99.5,0 199.5,-26.6 288.7,-81.2 l -682.2,-865.2"
         style="fill:#e9e8e7;fill-opacity:1;fill-rule:nonzero;stroke:none"
         id="path108" />
      <path
         d="m 12553.4,24167.6 c -167.4,154 -269,368.1 -281.4,597 -11.4,212.4 54.8,421.5 186.7,588.7 166.9,211.7 417.5,333.1 687.3,333.1 173.3,0 344.1,-52.5 487.7,-148.9 l -199,-252.3 c -89.2,54.6 -189.2,81.2 -288.7,81.2 -164.1,0 -326.6,-72.4 -436.1,-211.3 -86.9,-110.2 -125.3,-243.2 -118.3,-373.2 7.1,-133 61.9,-262.8 160.9,-361.9 l -199.1,-252.4"
         style="fill:#364d86;fill-opacity:1;fill-rule:nonzero;stroke:none"
         id="path110" />
      <path
         d="m 14759.5,26965.1 c 0.1,5 0.3,10 0.4,15.1 2,69.5 52.4,130.2 119.9,137.4 l -120.3,-152.5"
         style="fill:#e9e8e7;fill-opacity:1;fill-rule:nonzero;stroke:none"
         id="path112" />
      <path
         d="m 14139.5,26178.9 c 9.7,16.8 20.5,33 32.3,48.6 l 0.2,0.3 0.2,0.3 c 168,220.4 260.6,483.4 267.8,760.5 v 0.3 l 0.1,0.3 c 3.1,109.8 44.7,215.3 117.3,297.1 79.1,89.3 187.5,142.9 304.8,151 9.8,0.7 19.8,1 29.6,1 71.1,0 139.6,-17.4 201.2,-50.3 l -213.2,-270.4 c -67.5,-7.2 -117.9,-67.9 -119.9,-137.4 -0.1,-5.1 -0.3,-10.1 -0.4,-15.1 l -620,-786.2"
         style="fill:#364d86;fill-opacity:1;fill-rule:nonzero;stroke:none"
         id="path114" />
      <path
         d="m 11326.5,22611.7 c -2,0.6 -4,1.2 -6,1.8 -66.3,22.1 -98,105.4 -63.8,182.6 160.2,361.8 430.3,664.2 771.9,863.9 25.6,15 52.8,22 78.7,22 19.3,0 37.9,-3.9 54.4,-11.2 l -835.2,-1059.1"
         style="fill:#e9e8e7;fill-opacity:1;fill-rule:nonzero;stroke:none"
         id="path116" />
      <path
         d="m 11124.4,22355.4 c -70.7,45.5 -127.8,111.6 -162.7,190.7 -52.7,119.1 -51.8,257.5 2.4,379.5 93.2,210.7 218.3,404.6 371.9,576.4 153.5,171.9 332.2,318 530.9,434.2 73.5,43 156.6,65.8 240.4,65.8 92.8,0 181.1,-28.4 253.9,-78.2 l -199.5,-253 c -16.5,7.3 -35.1,11.2 -54.4,11.2 -25.9,0 -53.1,-7 -78.7,-22 -341.6,-199.7 -611.7,-502.1 -771.9,-863.9 -34.2,-77.2 -2.5,-160.5 63.8,-182.6 2,-0.6 4,-1.2 6,-1.8 l -202.1,-256.3"
         style="fill:#364d86;fill-opacity:1;fill-rule:nonzero;stroke:none"
         id="path118" />
      <path
         d="m 24965.9,15510.6 902.8,902.9 1501.4,-1501.3 -902.9,-902.9 -1501.3,1501.3"
         style="fill:#aee5f8;fill-opacity:1;fill-rule:nonzero;stroke:none"
         id="path120" />
      <path
         d="m 25868.7,16639.8 -226.2,-226.3 -676.6,-676.6 -226.3,-226.3 226.3,-226.2 1275,-1275.1 226.3,-226.2 226.2,226.2 676.6,676.6 226.3,226.3 -226.3,226.3 -1275,1275 -226.3,226.3 m 0,-452.5 1275.1,-1275.1 -676.6,-676.6 -1275.1,1275 676.6,676.7"
         style="fill:#3c5696;fill-opacity:1;fill-rule:nonzero;stroke:none"
         id="path122" />
      <path
         d="m 24965.9,15510.7 902.9,902.8 1501.3,-1501.3 -902.9,-902.9 -1501.3,1501.4"
         style="fill:#aee5f8;fill-opacity:1;fill-rule:nonzero;stroke:none"
         id="path124" />
      <path
         d="m 25868.8,16639.8 -226.3,-226.3 -676.6,-676.6 -226.3,-226.2 226.3,-226.3 1275,-1275.1 226.3,-226.2 226.3,226.2 676.6,676.6 226.3,226.3 -226.3,226.3 -1275.1,1275 -226.2,226.3 m 0,-452.5 1275,-1275.1 -676.6,-676.6 -1275,1275.1 676.6,676.6"
         style="fill:#3c5696;fill-opacity:1;fill-rule:nonzero;stroke:none"
         id="path126" />
      <path
         d="m 22763.9,23659 c -864.5,0 -1380.6,506.1 -1380.6,1353.7 0,390.5 216.8,865.5 644.3,1411.8 309.4,395.5 614.6,680.1 627.4,692 30.7,28.5 69.8,42.7 108.9,42.7 39,0 78.1,-14.2 108.8,-42.7 12.9,-11.9 318,-296.5 627.5,-692 427.5,-546.3 644.2,-1021.3 644.2,-1411.8 0,-847.6 -516.1,-1353.7 -1380.5,-1353.7"
         style="fill:#f57b8f;fill-opacity:1;fill-rule:nonzero;stroke:none"
         id="path128" />
      <path
         d="m 22763.9,27319.2 c -78.2,0 -156.4,-28.5 -217.8,-85.5 -13.2,-12.2 -327.4,-305.2 -644.5,-710.6 -450.1,-575.2 -678.3,-1083.3 -678.3,-1510.4 0,-247.5 40.2,-471.9 119.5,-666.9 78.8,-194 196,-359.3 348.2,-491.5 267.7,-232.4 638.7,-355.3 1072.9,-355.3 434.1,0 805.1,122.9 1072.8,355.3 152.2,132.2 269.4,297.5 348.3,491.5 79.2,195 119.4,419.4 119.4,666.9 0,427.1 -228.2,935.2 -678.2,1510.4 -317.2,405.4 -631.4,698.4 -644.6,710.6 -61.4,57 -139.6,85.5 -217.7,85.5 z m 0,-320 c 0,0 1220.5,-1133.3 1220.5,-1986.5 0,-853.1 -546.4,-1193.7 -1220.5,-1193.7 -674.1,0 -1220.6,340.6 -1220.6,1193.7 0,853.2 1220.6,1986.5 1220.6,1986.5"
         style="fill:#3c5696;fill-opacity:1;fill-rule:nonzero;stroke:none"
         id="path130" />
      <path
         d="m 20724,26911.4 c -145,0 -287.8,49.6 -401.8,139.5 l -4684.4,3694 c -136.3,107.5 -222.5,261.5 -242.9,433.8 -20.4,172.3 27.6,342.2 135,478.5 124,157.2 310,247.3 510.4,247.3 145,0 287.8,-49.5 401.9,-139.5 l 4684.3,-3694 c 136.3,-107.4 222.5,-261.5 242.9,-433.8 20.4,-172.3 -27.6,-342.2 -135,-478.4 -124,-157.2 -310,-247.4 -510.3,-247.4 h -0.1"
         style="fill:#aee5f8;fill-opacity:1;fill-rule:nonzero;stroke:none"
         id="path132" />
      <path
         d="m 16040.3,32064.5 c -249.7,0 -481.5,-112.3 -636,-308.3 -133.9,-169.8 -193.7,-381.5 -168.3,-596.3 25.4,-214.7 132.9,-406.7 302.7,-540.6 l 4684.4,-3694 c 142.2,-112.1 320.1,-173.9 500.9,-173.9 249.7,0 481.5,112.4 636,308.3 133.9,169.8 193.7,381.6 168.3,596.3 -25.4,214.7 -132.9,406.8 -302.7,540.6 l -4684.4,3694 c -142.2,112.2 -320.1,173.9 -500.9,173.9 z m 0,-320 c 106.1,0 213,-34.3 302.8,-105.1 l 4684.4,-3694 c 212.3,-167.4 248.7,-475.3 81.3,-687.6 v 0 c -96.7,-122.5 -240,-186.4 -384.8,-186.4 -106.1,0 -213,34.4 -302.8,105.2 l -4684.4,3694 c -212.3,167.4 -248.7,475.2 -81.2,687.5 96.6,122.5 239.9,186.4 384.7,186.4"
         style="fill:#3c5696;fill-opacity:1;fill-rule:nonzero;stroke:none"
         id="path134" />
      <path
         d="m 22763.9,24006.8 c -565.8,0 -1024.5,285.8 -1024.5,1001.9 0,135.9 36.9,280.2 96.6,424.8 -1.7,-24.5 -2.6,-48.8 -2.6,-72.9 0,-861.9 491.8,-1262.6 1139.7,-1339.8 -67.6,-9.4 -137.5,-14 -209.2,-14"
         style="fill:#ffffff;fill-opacity:1;fill-rule:nonzero;stroke:none"
         id="path136" />
      <path
         d="m 22763.9,8095.5 c -590.4,0 -1088.8,161.8 -1441.4,468 -403.9,350.7 -608.7,869 -608.7,1540.5 0,584.5 329.4,1301.9 979,2132.1 474.9,607 942.5,1043.1 962.2,1061.3 l 108.9,101.1 108.8,-101.1 c 19.7,-18.2 487.3,-454.3 962.2,-1061.3 649.7,-830.2 979.1,-1547.6 979.1,-2132.1 0,-671.5 -204.8,-1189.8 -608.7,-1540.5 -352.7,-306.2 -851.1,-468 -1441.4,-468"
         style="fill:#f57b8f;fill-opacity:1;fill-rule:nonzero;stroke:none"
         id="path138" />
      <path
         d="m 22763.9,13616.8 -217.8,-202.1 c -20,-18.7 -496.7,-463.2 -979.3,-1080 -672.2,-859 -1013,-1609.6 -1013,-2230.7 0,-360.6 57.9,-685.9 172.1,-966.7 111.6,-274.6 277,-508.3 491.7,-694.6 382.1,-331.8 916.8,-507.2 1546.3,-507.2 629.4,0 1164.1,175.4 1546.3,507.2 214.6,186.3 380,420 491.7,694.6 114.2,280.8 172.1,606.1 172.1,966.7 0,621.1 -340.9,1371.7 -1013.1,2230.7 -482.6,616.8 -959.2,1061.3 -979.3,1080 z m 0,-436.6 c 0,0 1890.1,-1755 1890.1,-3076.2 0,-1321.2 -846.3,-1848.5 -1890.1,-1848.5 -1043.9,0 -1890.1,527.3 -1890.1,1848.5 0,1321.2 1890.1,3076.2 1890.1,3076.2"
         style="fill:#3c5696;fill-opacity:1;fill-rule:nonzero;stroke:none"
         id="path140" />
      <path
         d="m 22763.9,8546.2 c -876.2,0 -1586.5,442.6 -1586.5,1551.6 0,210.3 57.1,433.8 149.6,657.8 -2.6,-37.9 -4,-75.5 -4,-112.9 0,-1334.8 761.6,-1955.1 1764.8,-2074.7 -104.6,-14.7 -212.9,-21.8 -323.9,-21.8"
         style="fill:#ffffff;fill-opacity:1;fill-rule:nonzero;stroke:none"
         id="path142" />
      <path
         d="m 22763.9,21888 c -875.6,0 -1697.8,-340 -2315.2,-957.3 -617.3,-617.4 -957.3,-1439.6 -957.3,-2315.2 0,-875.6 340,-1697.8 957.3,-2315.1 617.4,-617.4 1439.6,-957.4 2315.2,-957.4 875.5,0 1697.7,340 2315.1,957.4 617.3,617.3 957.4,1439.5 957.4,2315.1 0,875.6 -340.1,1697.8 -957.4,2315.1 -617.4,617.4 -1439.6,957.4 -2315.1,957.4 m 0,-7823.4 c -590.8,0 -1166.9,112.1 -1712.2,333.2 -565,229.1 -1071.6,565.5 -1505.9,999.7 -434.2,434.2 -770.5,940.9 -999.6,1505.8 -221.2,545.3 -333.3,1121.4 -333.3,1712.2 0,590.8 112.1,1166.9 333.3,1712.2 229.1,565 565.4,1071.6 999.6,1505.8 434.3,434.3 940.9,770.6 1505.9,999.7 545.3,221.1 1121.4,333.3 1712.2,333.3 590.8,0 1166.8,-112.2 1712.2,-333.3 564.9,-229.1 1071.5,-565.4 1505.8,-999.7 434.2,-434.2 770.5,-940.8 999.6,-1505.8 221.2,-545.3 333.3,-1121.4 333.3,-1712.2 0,-590.8 -112.1,-1166.9 -333.3,-1712.2 -229.1,-564.9 -565.4,-1071.6 -999.6,-1505.8 -434.3,-434.2 -940.9,-770.6 -1505.8,-999.7 -545.3,-221.1 -1121.5,-333.2 -1712.2,-333.2"
         style="fill:#aee5f8;fill-opacity:1;fill-rule:nonzero;stroke:none"
         id="path144" />
      <path
         d="m 26833.3,16963.4 c -221,-545 -545.5,-1033.8 -964.6,-1452.8 -419,-419 -907.8,-743.5 -1452.8,-964.5 -526.1,-213.4 -1082,-321.5 -1652,-321.5 h -0.1 c -570,0 -1125.9,108.2 -1652,321.5 -545,221 -1033.8,545.5 -1452.8,964.5 -419,419 -743.5,907.8 -964.6,1452.8 -213.3,526.2 -321.5,1082 -321.5,1652.1 0,570.1 108.2,1125.9 321.5,1652.1 221.1,545 545.6,1033.8 964.6,1452.8 419,419 907.8,743.5 1452.8,964.5 526.1,213.4 1082,321.6 1652.1,321.6 570,0 1125.9,-108.2 1652,-321.6 545,-221 1033.8,-545.5 1452.8,-964.5 419.1,-419 743.6,-907.8 964.6,-1452.8 213.3,-526.2 321.5,-1082 321.5,-1652.1 0,-570.1 -108.2,-1125.9 -321.5,-1652.1 m 296.5,3424.5 c -237.2,584.9 -585.3,1109.3 -1034.8,1558.8 -449.4,449.4 -973.9,797.6 -1558.8,1034.8 -564.6,228.9 -1160.9,345 -1772.3,345 -611.5,0 -1207.8,-116.1 -1772.4,-345 -584.9,-237.2 -1109.3,-585.4 -1558.8,-1034.8 -449.5,-449.5 -797.6,-973.9 -1034.8,-1558.8 -228.9,-564.6 -345,-1160.9 -345,-1772.4 0,-611.5 116.1,-1207.8 345,-1772.3 237.2,-584.9 585.4,-1109.4 1034.8,-1558.8 449.5,-449.5 973.9,-797.6 1558.8,-1034.8 564.6,-229 1160.9,-345 1772.3,-345 611.5,0 1207.8,116 1772.4,345 584.9,237.2 1109.4,585.3 1558.8,1034.8 449.5,449.4 797.6,973.9 1034.8,1558.8 228.9,564.5 345,1160.8 345,1772.3 0,611.5 -116.1,1207.8 -345,1772.4"
         style="fill:#3c5696;fill-opacity:1;fill-rule:nonzero;stroke:none"
         id="path146" />
      <path
         d="m 23063.9,14883 c -879.4,0 -1758.8,334.8 -2428.3,1004.2 -50.4,50.4 -98.9,102 -145.5,154.7 647.3,-572.6 1460.5,-858.9 2273.8,-858.9 879.4,0 1758.8,334.8 2428.2,1004.3 1288.6,1288.6 1337.2,3354.8 145.5,4701.9 52.6,-46.6 104.2,-95.1 154.5,-145.4 1339,-1339 1339,-3517.6 0,-4856.5 -669.4,-669.5 -1548.8,-1004.3 -2428.2,-1004.3"
         style="fill:#83cce3;fill-opacity:1;fill-rule:nonzero;stroke:none"
         id="path148" />
      <path
         d="m 22763.9,22048 c -879.3,-0.1 -1758.9,-334.8 -2428.3,-1004.2 -1339,-1339 -1339,-3517.6 0,-4856.6 669.5,-669.4 1548.9,-1004.2 2428.3,-1004.2 879.4,0 1758.8,334.8 2428.2,1004.3 1339,1338.9 1339,3517.5 0,4856.5 -669.5,669.6 -1548.7,1004.3 -2428.2,1004.2"
         style="fill:#3c5696;fill-opacity:1;fill-rule:nonzero;stroke:none"
         id="path150" />
      <path
         d="m 24965.9,16413.5 c -587.2,-587.1 -1369.2,-910.5 -2202,-910.5 -832.9,0 -1614.9,323.4 -2202,910.5 -1214.2,1214.2 -1214.2,3189.8 0,4404 587,587.1 1369.1,910.4 2202,910.5 832.9,0 1614.8,-323.3 2202,-910.5 1214.1,-1214.2 1214.1,-3189.8 0,-4404"
         style="fill:#ffffff;fill-opacity:1;fill-rule:nonzero;stroke:none"
         id="path152" />
      <path
         d="m 20348.8,16174.1 c -0.2,0.2 -0.4,0.4 -0.5,0.5 0.2,-0.2 0.3,-0.3 0.5,-0.5 m -2.4,2.4 c -0.7,0.7 -1.3,1.3 -2,1.9 0.7,-0.6 1.3,-1.2 2,-1.9 m -3.3,3.3 c -1.1,1 -2.1,2 -3.1,3.1 1,-1.1 2.1,-2.1 3.1,-3.1 m -4.1,4 c -1.1,1.2 -2.3,2.3 -3.4,3.4 -669.5,669.5 -1004.2,1548.9 -1004.2,2428.3 0,-879.4 334.7,-1758.8 1004.2,-2428.3 1.1,-1.1 2.3,-2.2 3.4,-3.4 m 4863.3,4849.8 v 0 0 m -3.7,3.7 c -0.6,0.6 -1.3,1.3 -1.9,1.9 0.6,-0.6 1.3,-1.2 1.9,-1.9 m -3.2,3.2 c -1,1.1 -2.2,2.2 -3.3,3.3 1.1,-1.1 2.2,-2.2 3.3,-3.3"
         style="fill:#98d7e8;fill-opacity:1;fill-rule:nonzero;stroke:none"
         id="path154" />
      <path
         d="m 20677.7,15887.6 c -114.2,87.4 -224.1,182.8 -328.9,286.5 -0.2,0.2 -0.3,0.3 -0.5,0.5 -0.7,0.7 -1.3,1.3 -1.9,1.9 -0.7,0.7 -1.3,1.3 -2,1.9 -0.4,0.5 -0.9,0.9 -1.3,1.4 -1,1 -2.1,2 -3.1,3.1 -0.3,0.3 -0.7,0.6 -1,0.9 -1.1,1.2 -2.3,2.3 -3.4,3.4 -669.5,669.5 -1004.2,1548.9 -1004.2,2428.3 0,879.4 334.7,1758.8 1004.2,2428.3 669.4,669.4 1549,1004.1 2428.3,1004.2 879.5,0.1 1758.7,-334.6 2428.2,-1004.2 v 0 c 1.1,-1.1 2.3,-2.2 3.3,-3.3 0.5,-0.4 0.9,-0.9 1.3,-1.3 0.6,-0.6 1.3,-1.3 1.9,-1.9 1.2,-1.2 2.5,-2.5 3.7,-3.7 v 0 c 104.8,-105.7 201.2,-216.7 289.4,-331.9 -328.6,251.7 -692.6,436 -1073,552.8 -490.6,308.4 -1059.7,473.5 -1654.8,473.5 -832.9,-0.1 -1615,-323.4 -2202,-910.5 -1044.8,-1044.8 -1190.6,-2653.3 -437.4,-3855.4 116.8,-381 301.2,-745.5 553.2,-1074.5"
         style="fill:#364d86;fill-opacity:1;fill-rule:nonzero;stroke:none"
         id="path156" />
      <path
         d="m 20124.5,16962.1 c -753.2,1202.1 -607.4,2810.6 437.4,3855.4 587,587.1 1369.1,910.4 2202,910.5 595.1,0 1164.2,-165.1 1654.8,-473.5 -329.5,101.2 -671.3,151.8 -1013.1,151.8 -879.3,-0.1 -1758.9,-334.8 -2428.3,-1004.2 -929.3,-929.4 -1213.5,-2263.2 -852.8,-3440"
         style="fill:#e9e8e7;fill-opacity:1;fill-rule:nonzero;stroke:none"
         id="path158" />
      <path
         d="m 30166,9849.3 c -216.5,0 -420.1,84.3 -573.2,237.5 l -3186.1,3186.1 c -153.2,153.1 -237.5,356.7 -237.5,573.2 0,216.6 84.3,420.2 237.5,573.3 l 553.3,553.3 c 153.1,153.1 356.7,237.5 573.2,237.5 216.6,0 420.2,-84.4 573.3,-237.5 l 3186.1,-3186.1 c 316.1,-316.1 316.1,-830.5 0,-1146.6 l -553.3,-553.2 c -153.1,-153.2 -356.7,-237.5 -573.3,-237.5"
         style="fill:#fccf6e;fill-opacity:1;fill-rule:nonzero;stroke:none"
         id="path160" />
      <path
         d="m 27533.2,15370.2 c -259.3,0 -503,-101 -686.4,-284.3 l -553.3,-553.3 c -378.5,-378.5 -378.5,-994.4 0,-1372.9 l 3186.1,-3186.1 c 183.4,-183.3 427.2,-284.3 686.4,-284.3 259.3,0 503.1,101 686.5,284.3 l 553.3,553.3 c 183.3,183.4 284.3,427.1 284.3,686.4 0,259.3 -101,503.1 -284.3,686.5 l -3186.1,3186.1 c -183.4,183.3 -427.2,284.3 -686.5,284.3 m 0,-320 c 166.6,0 333.1,-63.6 460.2,-190.6 l 3186.1,-3186.1 c 254.1,-254.2 254.1,-666.2 0,-920.3 l -553.3,-553.3 c -127.1,-127.1 -293.6,-190.6 -460.2,-190.6 -166.5,0 -333,63.5 -460.1,190.6 L 26519.8,13386 c -254.1,254.1 -254.1,666.2 0,920.3 l 553.3,553.3 c 127.1,127 293.6,190.6 460.1,190.6"
         style="fill:#3c5696;fill-opacity:1;fill-rule:nonzero;stroke:none"
         id="path162" />
      <path
         d="m 31687.8,11145.5 v 0.1 -0.1 m 0.3,5.8 c 0.1,0.1 0.1,0.2 0.1,0.4 0,-0.2 0,-0.3 -0.1,-0.4 m 0.4,5.8 c 0,0.2 0,0.5 0,0.7 0,-0.2 0,-0.5 0,-0.7 m 0.3,5.8 c 0,0.3 0,0.7 0.1,1 -0.1,-0.3 -0.1,-0.7 -0.1,-1 m 0.1,2.5 c 0.1,0.7 0.1,1.3 0.1,2 0,-0.6 0,-1.3 -0.1,-2 m 0.2,3.4 c 0,0.4 0,0.8 0,1.3 0,-0.5 0,-0.9 0,-1.3 m 0.1,2.5 c 0,0.8 0.1,1.5 0.1,2.3 0,-0.8 -0.1,-1.5 -0.1,-2.3 m 0.1,3.4 c 0.1,0.5 0.1,1 0.1,1.5 0,-0.5 0,-1 -0.1,-1.5 m 0.1,2.6 c 0.1,0.8 0.1,1.5 0.1,2.3 0,-0.8 0,-1.5 -0.1,-2.3 m 0.1,3.3 c 0.1,0.6 0.1,1.2 0.1,1.9 0,-0.7 0,-1.3 -0.1,-1.9 m 0.1,2.6 c 0.1,0.9 0.1,1.7 0.1,2.5 0,-0.8 0,-1.6 -0.1,-2.5 m 0.1,3.4 c 0,0.6 0.1,1.3 0.1,1.9 0,-0.6 -0.1,-1.3 -0.1,-1.9 m 0.1,2.7 c 0,0.8 0,1.6 0.1,2.4 -0.1,-0.8 -0.1,-1.6 -0.1,-2.4 m 0.1,3.3 c 0,0.7 0,1.4 0,2.1 0,-0.7 0,-1.4 0,-2.1 m 0,2.6 c 0,0.9 0.1,1.8 0.1,2.7 0,-0.9 -0.1,-1.8 -0.1,-2.7 m 0.1,3.3 c 0,0.8 0,1.6 0,2.5 0,-0.9 0,-1.7 0,-2.5 m 0,2.8 c 0,0.8 0,1.7 0,2.6 0,-0.9 0,-1.8 0,-2.6 m 0.1,3.3 c 0,0.8 0,1.7 0,2.5 0,-0.8 0,-1.7 0,-2.5 m 0,2.7 c 0,0.9 0,1.8 0,2.7 0,-0.9 0,-1.8 0,-2.7 m 0,3.3 c 0,0.9 0,1.8 0,2.7 v 0 c 0,-0.9 0,-1.8 0,-2.7"
         style="fill:#d6f1fc;fill-opacity:1;fill-rule:nonzero;stroke:none"
         id="path164" />
      <path
         d="m 26245.7,14481.3 c 0.1,0 0.1,0 0.1,0.1 0,-0.1 0,-0.1 -0.1,-0.1 m 8.3,9.4 c 0.2,0.1 0.3,0.3 0.4,0.4 -0.1,-0.1 -0.2,-0.3 -0.4,-0.4 m 1.7,1.9 c 0.2,0.2 0.4,0.4 0.6,0.7 -0.2,-0.3 -0.4,-0.5 -0.6,-0.7 m 1.9,2.1 c 0.2,0.2 0.4,0.4 0.6,0.6 -0.2,-0.2 -0.4,-0.4 -0.6,-0.6 m 1.8,2 c 0.2,0.2 0.4,0.4 0.5,0.6 -0.1,-0.2 -0.3,-0.4 -0.5,-0.6 m 3,3.3 c 0.2,0.2 0.4,0.5 0.6,0.7 -0.2,-0.2 -0.4,-0.5 -0.6,-0.7 m 1.8,2 c 0.2,0.2 0.5,0.5 0.7,0.7 -0.2,-0.2 -0.4,-0.5 -0.7,-0.7 m 1.8,2 c 0.3,0.3 0.6,0.6 0.9,0.9 -0.3,-0.3 -0.5,-0.6 -0.9,-0.9 m 1.9,2 c 0.4,0.4 0.7,0.7 1,1 -0.3,-0.3 -0.6,-0.7 -1,-1 m 2,2.1 c 0.4,0.4 0.7,0.8 1.1,1.1 -0.4,-0.3 -0.8,-0.7 -1.1,-1.1 m 2.6,2.8 c 0.4,0.4 0.8,0.8 1.2,1.2 -0.4,-0.4 -0.8,-0.8 -1.2,-1.2 m 2.1,2.2 c 0.3,0.4 0.7,0.8 1.1,1.2 -0.4,-0.4 -0.8,-0.8 -1.1,-1.2 m 2,2.1 c 0.3,0.4 0.7,0.7 1.1,1.1 -0.4,-0.4 -0.8,-0.7 -1.1,-1.1 m 2,2.1 c 0.4,0.4 0.7,0.8 1.1,1.2 -0.3,-0.4 -0.7,-0.8 -1.1,-1.2 m 2,2.1 c 0.5,0.5 1,1.1 1.6,1.6 -0.6,-0.5 -1.1,-1.1 -1.6,-1.6 m 2.3,2.4 c 0.5,0.5 1.1,1.1 1.6,1.7 -0.5,-0.6 -1.1,-1.2 -1.6,-1.7 m 2.3,2.4 c 0.5,0.4 0.9,0.9 1.4,1.3 -0.5,-0.4 -0.9,-0.9 -1.4,-1.3 m 2.2,2.1 c 0.4,0.5 0.8,0.9 1.3,1.4 -0.5,-0.5 -0.9,-0.9 -1.3,-1.4 m 2,2.1 c 0.5,0.5 0.9,1 1.4,1.4 -0.5,-0.4 -0.9,-0.9 -1.4,-1.4 m 2.1,2.1 c 0.7,0.7 1.3,1.4 2,2.1 -0.7,-0.7 -1.3,-1.4 -2,-2.1"
         style="fill:#91dbf8;fill-opacity:1;fill-rule:nonzero;stroke:none"
         id="path166" />
      <path
         d="m 31337.1,11008.4 -3117.4,3117.5 c -183.4,183.3 -427.2,284.3 -686.5,284.3 -259.3,0 -503,-101 -686.4,-284.3 l -484.6,-484.7 c -74.9,226.1 -22.3,485.2 157.6,665.1 l 553.3,553.3 c 127.1,127 293.6,190.6 460.1,190.6 166.6,0 333.1,-63.6 460.2,-190.6 l 3186.1,-3186.1 c 179.9,-179.9 232.4,-439 157.6,-665.1"
         style="fill:#faba39;fill-opacity:1;fill-rule:nonzero;stroke:none"
         id="path168" />
      <path
         d="m 31563.6,10733.3 c -42.6,74.7 -95.4,144.1 -157.8,206.4 l -68.7,68.7 c 74.8,226.1 22.3,485.2 -157.6,665.1 l -3186.1,3186.1 c -127.1,127 -293.6,190.6 -460.2,190.6 -166.5,0 -333,-63.6 -460.1,-190.6 l -553.3,-553.3 c -179.9,-179.9 -232.5,-439 -157.6,-665.1 l -68.7,-68.6 c -62.9,-63 -115.2,-132.6 -157.2,-206.5 -199.4,350.9 -163.1,800.5 109.4,1115.2 0.1,0 0.1,0 0.1,0.1 2.7,3.1 5.5,6.2 8.2,9.3 0.2,0.1 0.3,0.3 0.4,0.4 0.5,0.5 0.9,1 1.3,1.5 0.2,0.2 0.4,0.4 0.6,0.7 0.4,0.4 0.9,0.9 1.3,1.4 0.2,0.2 0.4,0.4 0.6,0.6 0.4,0.5 0.8,0.9 1.2,1.4 0.2,0.2 0.4,0.4 0.5,0.6 0.9,0.9 1.7,1.8 2.5,2.7 0.2,0.2 0.4,0.5 0.6,0.7 0.4,0.4 0.8,0.8 1.2,1.3 0.3,0.2 0.5,0.5 0.7,0.7 0.4,0.4 0.8,0.9 1.1,1.3 0.4,0.3 0.6,0.6 0.9,0.9 0.4,0.4 0.7,0.7 1,1.1 0.4,0.3 0.7,0.7 1,1 0.3,0.4 0.7,0.7 1,1.1 0.3,0.4 0.7,0.8 1.1,1.1 0.5,0.6 1,1.1 1.5,1.7 0.4,0.4 0.8,0.8 1.2,1.2 0.3,0.4 0.6,0.6 0.9,1 0.3,0.4 0.7,0.8 1.1,1.2 0.3,0.3 0.6,0.6 0.9,0.9 0.3,0.4 0.7,0.7 1.1,1.1 0.3,0.4 0.6,0.7 0.9,1 0.4,0.4 0.8,0.8 1.1,1.2 0.3,0.3 0.6,0.6 0.9,0.9 0.5,0.5 1,1.1 1.6,1.6 0.2,0.3 0.5,0.5 0.7,0.8 0.5,0.5 1.1,1.1 1.6,1.7 0.3,0.2 0.5,0.4 0.7,0.7 0.5,0.4 0.9,0.9 1.4,1.3 0.2,0.3 0.5,0.6 0.8,0.8 0.4,0.5 0.8,0.9 1.3,1.4 0.2,0.2 0.5,0.5 0.7,0.7 0.5,0.5 0.9,1 1.4,1.4 0.2,0.2 0.5,0.5 0.7,0.7 0.7,0.7 1.3,1.4 2,2.1 v 0 l 553.3,553.3 c 183.4,183.3 427.1,284.3 686.4,284.3 259.3,0 503.1,-101 686.5,-284.3 l 3186.1,-3186.1 c 183.3,-183.4 284.3,-427.2 284.3,-686.5 0,-0.9 0,-1.8 0,-2.7 0,-0.2 0,-0.4 0,-0.6 0,-0.9 0,-1.8 0,-2.7 0,-0.1 0,-0.1 0,-0.2 0,-0.8 0,-1.7 0,-2.5 -0.1,-0.3 -0.1,-0.5 -0.1,-0.7 0,-0.9 0,-1.8 0,-2.6 0,-0.1 0,-0.2 0,-0.3 0,-0.9 0,-1.7 0,-2.5 0,-0.2 0,-0.4 0,-0.6 0,-0.9 -0.1,-1.8 -0.1,-2.7 0,-0.1 0,-0.3 0,-0.5 0,-0.7 0,-1.4 0,-2.1 0,-0.3 0,-0.6 0,-0.9 -0.1,-0.8 -0.1,-1.6 -0.1,-2.4 0,-0.3 0,-0.5 0,-0.8 0,-0.6 -0.1,-1.3 -0.1,-1.9 0,-0.3 0,-0.6 0,-0.9 0,-0.8 0,-1.6 -0.1,-2.5 0,-0.2 0,-0.5 0,-0.7 0,-0.7 0,-1.3 -0.1,-1.9 0,-0.4 0,-0.7 0,-1 0,-0.8 0,-1.5 -0.1,-2.3 0,-0.4 0,-0.7 0,-1.1 0,-0.5 0,-1 -0.1,-1.5 0,-0.4 0,-0.8 0,-1.1 0,-0.8 -0.1,-1.5 -0.1,-2.3 0,-0.4 0,-0.8 -0.1,-1.2 0,-0.5 0,-0.9 0,-1.3 0,-0.4 0,-0.9 -0.1,-1.4 0,-0.7 0,-1.3 -0.1,-2 0,-0.5 0,-1 0,-1.5 -0.1,-0.3 -0.1,-0.7 -0.1,-1 -0.1,-1.7 -0.2,-3.4 -0.3,-5.1 0,-0.2 0,-0.5 0,-0.7 -0.1,-1.8 -0.2,-3.6 -0.3,-5.4 0,-0.2 0,-0.3 -0.1,-0.4 -0.1,-1.9 -0.2,-3.8 -0.3,-5.7 v -0.1 c -10.1,-146.6 -52.6,-286.7 -124.2,-412.2"
         style="fill:#21285a;fill-opacity:1;fill-rule:nonzero;stroke:none"
         id="path170" />
      <path
         d="m 10479.4,20652.9 c -159.6,0 -316.7,54.5 -442.2,153.5 -161.29,127.2 -260.13,317.8 -271.19,523 -9.37,173.6 44.79,344.4 152.51,481 136.38,173 341.18,272.2 561.68,272.2 159.6,0 316.7,-54.5 442.2,-153.6 136.6,-107.7 229.1,-261.2 260.5,-432.1 37.1,-202.1 -14.6,-410.5 -141.8,-571.8 -136.4,-173 -341.1,-272.2 -561.6,-272.2 h -0.1"
         style="fill:#ffffff;fill-opacity:1;fill-rule:nonzero;stroke:none"
         id="path172" />
      <path
         d="m 10480.2,22242.6 c -269.8,0 -520.36,-121.4 -687.32,-333.2 -131.83,-167.1 -198.11,-376.2 -186.64,-588.6 13.54,-251.1 134.5,-484.4 331.86,-640 153.7,-121.2 345.9,-187.9 541.3,-187.9 269.9,0 520.4,121.4 687.3,333.1 155.7,197.4 218.9,452.5 173.5,699.8 -38.3,209.2 -151.5,397 -318.7,528.9 -153.7,121.2 -345.9,187.9 -541.3,187.9 z m 0,-320 c 120.2,0 241.4,-39 343.2,-119.2 110.2,-86.9 178.6,-207.3 202.1,-335.4 27.8,-151.3 -7.2,-313.5 -110,-443.8 -109.5,-138.9 -272,-211.3 -436.1,-211.3 -120.2,0 -241.4,38.9 -343.2,119.2 -130.3,102.8 -202.14,252.2 -210.42,405.9 -7.02,130 31.43,263 118.32,373.3 109.5,138.8 272,211.3 436.1,211.3"
         style="fill:#3c5696;fill-opacity:1;fill-rule:nonzero;stroke:none"
         id="path174" />
      <path
         d="m 22763.9,16389.5 c -501.7,0 -925.7,138 -1226.3,399 -344.8,299.4 -519.6,740.8 -519.6,1312 0,1164.9 1570.1,2636.2 1637,2698.3 l 108.9,101.1 108.8,-101.1 c 66.9,-62.1 1637,-1533.4 1637,-2698.3 0,-571.2 -174.8,-1012.6 -519.5,-1312 -300.7,-261 -724.7,-399 -1226.3,-399"
         style="fill:#f57b8f;fill-opacity:1;fill-rule:nonzero;stroke:none"
         id="path176" />
      <path
         d="m 22763.9,21118.2 -217.8,-202.2 c -16.9,-15.7 -419.7,-391.4 -827.2,-912.1 -571.3,-730.1 -860.9,-1370.5 -860.9,-1903.4 0,-309.2 49.8,-588.7 148.2,-830.5 96.7,-237.9 240.2,-440.6 426.5,-602.3 330.1,-286.7 790.4,-438.2 1331.2,-438.2 540.7,0 1001,151.5 1331.1,438.2 186.3,161.7 329.8,364.4 426.5,602.3 98.4,241.8 148.2,521.3 148.2,830.5 0,532.9 -289.6,1173.3 -860.9,1903.4 -407.4,520.7 -810.3,896.4 -827.2,912.1 z m 0,-436.7 c 0,0 1585.8,-1472.4 1585.8,-2581 0,-1108.5 -710,-1551 -1585.8,-1551 -875.9,0 -1585.9,442.5 -1585.9,1551 0,1108.6 1585.9,2581 1585.9,2581"
         style="fill:#3c5696;fill-opacity:1;fill-rule:nonzero;stroke:none"
         id="path178" />
      <path
         d="m 22763.9,16793.4 c -735.2,0 -1331.1,371.4 -1331.1,1301.9 0,176.5 47.9,364 125.5,551.9 -2.2,-31.8 -3.4,-63.4 -3.4,-94.7 0,-1119.9 639.1,-1640.4 1480.8,-1740.8 -87.8,-12.3 -178.7,-18.3 -271.8,-18.3"
         style="fill:#ffffff;fill-opacity:1;fill-rule:nonzero;stroke:none"
         id="path180" />
      <path
         d="m 10042.8,18467.8 c -92.45,0 -177.69,43.9 -227.96,117.4 -85.69,125.2 -59.84,295.6 60.21,396.2 239.05,199.4 406.05,463.9 483.15,765.2 34.8,134.6 153.1,228.5 287.8,228.5 14.7,0 29.6,-1.2 44.2,-3.5 74.3,-11.6 141.5,-55.4 184.2,-120.2 46.8,-71.2 61.1,-161.2 39,-247.1 -107.1,-418.5 -339.2,-786 -670.9,-1062.8 -56.9,-47.5 -127.9,-73.7 -199.7,-73.7 v 0"
         style="fill:#ffffff;fill-opacity:1;fill-rule:nonzero;stroke:none"
         id="path182" />
      <path
         d="m 10646,20135.1 c -207.7,0 -389.7,-143.2 -442.6,-348.2 l -0.1,-0.3 -0.1,-0.3 c -68.7,-268.5 -217.55,-504.3 -430.38,-681.9 l -0.26,-0.2 -0.26,-0.2 c -84.17,-70.5 -141.08,-168.6 -160.23,-276.3 -20.91,-117.4 4.24,-235.7 70.81,-332.9 79.97,-117 214.59,-187 359.92,-187 109.3,0 216.6,39.4 302.3,111 176.8,147.4 328.8,321.1 451.8,515.9 123,194.9 214.4,406.8 271.5,630 33.2,129.3 11.2,265.9 -60.4,374.7 -67.4,102.4 -174.3,171.8 -293.3,190.3 -22.5,3.6 -45.7,5.4 -68.7,5.4 z m -699.06,-1459.6 v 0 0 m 699.06,1139.6 c 6.4,0 12.8,-0.5 19.3,-1.5 69,-10.8 114.1,-87.8 93.1,-169.5 -98.1,-383.4 -314.6,-726.2 -618.4,-979.7 -29.7,-24.8 -64.4,-36.6 -97.2,-36.6 -38.6,0 -74.53,16.5 -95.86,47.7 -39.54,57.8 -23.61,137.6 30.88,183.2 263.08,219.5 450.38,516.3 535.38,848.2 16.1,62.4 71.1,108.2 132.8,108.2"
         style="fill:#3c5696;fill-opacity:1;fill-rule:nonzero;stroke:none"
         id="path184" />
    </g>
  </g>
</svg>
