<?xml version="1.0" encoding="iso-8859-1"?>
<!-- Uploaded to: SVG Repo, www.svgrepo.com, Generator: SVG Repo Mixer Tools -->
<svg version="1.1" id="Layer_1" xmlns="http://www.w3.org/2000/svg" xmlns:xlink="http://www.w3.org/1999/xlink" 
	 viewBox="0 0 512 512" xml:space="preserve">
<g>
	<path style="fill:#D5E2E8;" d="M320.834,10.199h-129.67c-13.827,0-25.035,11.209-25.035,25.035l0,0
		c0,13.827,11.209,25.035,25.035,25.035h129.67c13.827,0,25.035-11.209,25.035-25.035l0,0
		C345.87,21.408,334.661,10.199,320.834,10.199z"/>
	<rect x="194.55" y="60.267" style="fill:#D5E2E8;" width="122.9" height="143.38"/>
</g>
<path style="fill:#FF422D;" d="M194.55,203.654v236.697c0,33.938,27.512,61.45,61.45,61.45l0,0c33.938,0,61.45-27.512,61.45-61.45
	V203.654H194.55z"/>
<path d="M356.069,35.234C356.069,15.807,340.263,0,320.834,0h-129.67c-19.428,0-35.234,15.807-35.234,35.234
	c0,17.097,12.242,31.384,28.42,34.567v133.851v236.698C184.351,479.858,216.492,512,256,512c39.508,0,71.649-32.142,71.649-71.649
	V203.654V69.801C343.826,66.618,356.069,52.331,356.069,35.234z M307.251,193.454H204.749V70.469h102.502V193.454z M307.251,440.351
	c0,28.26-22.991,51.251-51.251,51.251c-28.26,0-51.251-22.991-51.251-51.251V213.853h102.502V440.351z M320.834,50.071h-3.384
	h-122.9h-3.385c-8.181,0-14.836-6.655-14.836-14.836s6.655-14.837,14.836-14.837h129.67c8.181,0,14.837,6.655,14.837,14.836
	S329.016,50.071,320.834,50.071z"/>
<path d="M229.827,362.926c5.633,0,10.199-4.566,10.199-10.199V340.21c0-5.633-4.566-10.199-10.199-10.199
	c-5.633,0-10.199,4.566-10.199,10.199v12.517C219.628,358.36,224.194,362.926,229.827,362.926z"/>
<path d="M229.827,311.717c5.633,0,10.199-4.566,10.199-10.199v-59.174c0-5.633-4.566-10.199-10.199-10.199
	c-5.633,0-10.199,4.566-10.199,10.199v59.174C219.628,307.151,224.194,311.717,229.827,311.717z"/>
</svg>